<svg height="491pt" viewBox="0 -22 491.96272 491" width="491pt" xmlns="http://www.w3.org/2000/svg"><path d="m491.960938 347.78125c-.011719-13.757812-11.164063-24.910156-24.925782-24.925781h-90.398437c-2.386719-28.40625-21.757813-52.53125-48.980469-61 .007812-.097657.023438-.207031.027344-.316407.796875-32.332031-8.175782-64.152343-25.753906-91.300781-15.136719-23.597656-36.332032-42.699219-61.367188-55.316406 5.925781-3.539063 8.847656-7.699219 8.847656-12.578125v-13.261719c0-.070312-.007812-.140625-.011718-.214843 0-.097657.011718-.199219.011718-.308594 0-5.617188-4.335937-11.207032-32.40625-14.726563 4.816406-4.625 8.824219-10.019531 11.859375-15.964843l17.5-34.242188c1.199219-2.34375.730469-5.195312-1.15625-7.03125s-4.75-2.226562-7.058593-.96875c-9.085938 4.960938-20.761719-.320312-28.957032-5.621094-15.886718-10.4375-35.878906-12.425781-53.511718-5.320312-13.835938 5.699218-20.699219 14.734375-23.238282 18.820312-25.78125 11.527344-40.324218-5.585937-40.976562-6.378906-1.875-2.308594-5.160156-2.890625-7.71875-1.371094-2.558594 1.519532-3.613282 4.6875-2.484375 7.4375l12.578125 30.355469c3.234375 7.828125 8.097656 14.875 14.265625 20.679687-4.734375.628907-9.429688 1.492188-14.078125 2.59375-4.671875 1.152344-15.617188 3.851563-15.617188 11.742188 0 .097656.007813.199219.011719.304688 0 .074218-.011719.144531-.011719.214843v13.261719c0 5.054688 3.375 9.183594 8.929688 12.527344-39.65625 19.949218-69.753906 56.664062-81.777344 100.582031-12.957031 47.324219-3.039062 96.796875 27.253906 135.871094-4.992187 8.285156-7.621094 17.773437-7.601562 27.445312.039062 8.710938 7.109375 15.757813 15.824218 15.757813 14.085938.039062 27.597657-5.566406 37.523438-15.558594l.078125-.082031c4.957031-4.992188 11.707031-7.792969 18.738281-7.773438h29.4375c-7.542968 10.382813-5.945312 24.800781 3.6875 33.28125-5.351562 4.546875-8.4375 11.214844-8.4375 18.234375v1.894532c.015625 13.238281 10.742188 23.964843 23.980469 23.980468h132.25c13.238281-.015625 23.964844-10.742187 23.980469-23.980468v-1.894532c0-7.007812-3.074219-13.664062-8.40625-18.210937 2.054687-1.824219 3.796875-3.976563 5.144531-6.371094.285156.03125.570313.058594.855469.085937h.023437c1.128907.113282 2.265625.199219 3.40625.261719.117188.003907.234375.007813.351563.015625 1.117187.050782 2.238281.082032 3.363281.082032 2.671875-.003907 5.339844-.160157 7.992187-.46875 1.304688 2.316406 2.972657 4.402343 4.941407 6.1875-5.210938 4.542968-8.199219 11.117187-8.199219 18.03125v1.890624c.015625 13.238282 10.742188 23.964844 23.980469 23.980469h132.253906c13.234375-.015625 23.960937-10.742187 23.976563-23.976562v-1.894531c.003906-6.917969-2.992188-13.496094-8.210938-18.042969 5.328125-4.804688 8.320312-11.679688 8.210938-18.851563-.109376-7.171875-3.3125-13.949218-8.78125-18.59375 5.570312-4.726562 8.785156-11.664062 8.78125-18.972656zm-12 0c-.007813 7.136719-5.789063 12.917969-12.925782 12.925781h-97.980468c4.179687-8.039062 6.742187-16.824219 7.542968-25.851562h90.4375c7.136719.007812 12.917969 5.792969 12.925782 12.925781zm-277.289063-327.699219c9.71875 6.289063 18.890625 9.484375 27.148437 9.539063l-11.644531 22.785156c-4.390625 8.625-11.304687 15.707031-19.824219 20.300781-.328124.136719-.644531.304688-.945312.5-4.503906 2.296875-9.347656 3.855469-14.34375 4.625l9.421875-49.496093c.414063-2.1875-.414063-4.421876-2.152344-5.8125-.597656-.472657-10.652343-8.246094-28.285156-7.417969 13.574219-4.773438 28.601563-2.933594 40.625 4.976562zm-97.75 28.871094-5.039063-12.171875c10.066407 3.640625 23.363282 4.351562 38.78125-2.9375.378907-.128906.742188-.296875 1.085938-.5 20.738281-9.921875 34.488281-5.875 40.164062-3.148438l-9.175781 48.199219h-21.75c-7.425781.003907-14.75-1.722656-21.390625-5.042969-.277344-.171874-.566406-.320312-.867187-.441406-9.847657-5.1875-17.5625-13.664062-21.808594-23.957031zm18.324219 35.640625c8.039062 3.828125 16.835937 5.8125 25.742187 5.800781h26.714844c9.085937.011719 18.050781-2.050781 26.21875-6.027343 14.5 1.175781 23.800781 2.800781 29.390625 4.203124-10.871094 2.679688-33.535156 5.609376-67.402344 5.609376-33.921875 0-56.609375-2.9375-67.457031-5.625 5.308594-1.324219 13.875-2.8125 26.792969-3.960938zm-16.421875 18.125c15.296875 2.234375 35.570312 3.46875 57.085937 3.46875s41.792969-1.234375 57.085938-3.46875c5.546875-.722656 11.035156-1.859375 16.417968-3.394531v2.808593c-.320312.511719-2.625 3.523438-13.683593 6.847657-.046875.015625-.09375.027343-.140625.039062-14.640625 4.375-36.375 6.882813-59.675782 6.882813-19.398437 0-37.929687-1.753906-52.171874-4.941406-15.542969-3.480469-20.644532-7.527344-21.332032-8.8125v-2.824219c5.382813 1.535156 10.867188 2.667969 16.414063 3.394531zm-36.683594 267.699219-.078125.078125c-7.679688 7.726562-18.132812 12.058594-29.027344 12.027344-1.011718.015624-1.984375-.375-2.703125-1.085938-.71875-.707031-1.121093-1.675781-1.121093-2.6875-.015626-7.597656 2.082031-15.050781 6.058593-21.523438 2.472657-4.046874 2.179688-9.203124-.738281-12.945312-28.128906-36.058594-37.386719-81.859375-25.398438-125.65625 12.117188-44.253906 44.039063-80.574219 85.585938-97.558594 18.320312 5.125 43.261719 6.84375 61.191406 6.84375 13.492188.042969 26.96875-.84375 40.335938-2.652344-6.703125 10.464844-11.445313 22.058594-14 34.21875-.683594 3.242188 1.390625 6.425782 4.632812 7.109376 3.242188.6875 6.425782-1.386719 7.109375-4.628907 2.644531-12.601562 7.941407-24.496093 15.542969-34.886719l2.136719 3.097657.121093.207031c9.796876 16.765625 16.929688 34.949219 21.144532 53.902344.769531 3.191406 3.964844 5.171875 7.164062 4.445312 3.203125-.730468 5.222656-3.898437 4.535156-7.109375-4.492187-20.160156-12.085937-39.5-22.507812-57.332031l-.234375-.398438c-.070313-.121093-.148437-.238281-.226563-.355468l-.507812-.734375c25.714844 11.496093 47.503906 30.257812 62.691406 53.972656 15.898438 24.570313 24.195313 53.285156 23.851563 82.546875-5.609375-.726562-11.285157-.746094-16.898438-.0625-1.328125-2.25-3.003906-4.28125-4.960937-6.011719 5.347656-4.546875 8.429687-11.210937 8.429687-18.230469v-1.894531c-.015625-13.234375-10.742187-23.964843-23.980469-23.976562h-132.242187c-13.238281.011719-23.964844 10.742187-23.980469 23.976562v1.894531c0 7.019532 3.085938 13.6875 8.4375 18.234376-5.421875 4.777343-8.5 11.675781-8.433594 18.902343.066407 7.222657 3.269532 14.0625 8.78125 18.738281-5.570312 4.726563-8.785156 11.664063-8.785156 18.96875 0 7.308594 3.214844 14.246094 8.785156 18.972657-8.808593 7.46875-11.316406 20.019531-6.050781 30.296875h-27.421875c-10.222656-.027344-20.035156 4.039062-27.238281 11.300781zm174.78125-9.710938h-97.929687c-2.035157 0-4.039063-.484375-5.847657-1.414062v-.183594h-.367187c-5.175782-2.835937-7.769532-8.820313-6.304688-14.539063s6.617188-9.714843 12.519532-9.714843h90.429687c.015625.167969.03125.339843.050781.507812.019532.238281.042969.476563.070313.710938.894531 8.601562 3.394531 16.960937 7.378906 24.636719zm-7.519531-37.9375h-90.410156c-7.136719 0-12.925782-5.789062-12.925782-12.925781 0-7.140625 5.789063-12.929688 12.925782-12.929688h97.785156c-4.121094 8.054688-6.628906 16.839844-7.375 25.855469zm15.214844-37.941406h-105.625c-7.136719 0-12.925782-5.789063-12.925782-12.925781 0-7.140625 5.789063-12.925782 12.925782-12.925782h130.359374c3.074219 0 6.046876 1.09375 8.386719 3.089844-13.023437 4.191406-24.539062 12.105469-33.121093 22.765625zm-106.570313-37.84375c-6.613281-.007813-11.972656-5.367187-11.980469-11.980469v-1.894531c.007813-6.613281 5.367188-11.972656 11.980469-11.976563h132.25c6.613281.003907 11.972656 5.363282 11.980469 11.976563v1.894531c-.007813 6.613282-5.367188 11.972656-11.980469 11.980469zm132.25 163.671875c6.613281.007812 11.972656 5.363281 11.980469 11.976562v1.894532c-.007813 6.613281-5.367188 11.972656-11.980469 11.980468h-132.25c-6.613281-.007812-11.972656-5.367187-11.980469-11.980468v-1.894532c.007813-6.613281 5.367188-11.972656 11.980469-11.976562zm-.945313-12h-130.359374c-7.09375-.0625-12.8125-5.832031-12.8125-12.929688 0-7.09375 5.71875-12.863281 12.8125-12.925781h105.886718c8.589844 10.609375 20.121094 18.445313 33.148438 22.523438-2.378906 2.148437-5.472656 3.335937-8.675782 3.328125zm26.476563-12.246094c-.46875-.027344-.933594-.070312-1.398437-.105468-.554688-.042969-1.109376-.085938-1.660157-.144532-.640625-.070312-1.277343-.15625-1.910156-.246094-.332031-.046874-.664063-.089843-.992187-.144531-.789063-.125-1.574219-.261719-2.351563-.417969l-.300781-.0625c-24.566406-5.160156-43.027344-25.535156-45.742188-50.492187-.019531-.191406-.039062-.386719-.058594-.578125-.066406-.714844-.121093-1.429688-.164062-2.148438-.011719-.238281-.027344-.46875-.039062-.703124-.042969-.90625-.070313-1.820313-.070313-2.738282 0-31.964844 25.910156-57.878906 57.875-57.878906s57.878906 25.914062 57.878906 57.878906-25.914062 57.875-57.878906 57.875c-1.066406-.007812-2.128906-.042968-3.1875-.097656zm176.132813 35.832032v1.894531c-.003907 6.613281-5.363282 11.972656-11.976563 11.980469h-132.25c-6.613281-.007813-11.972656-5.367188-11.980469-11.980469v-1.894531c.011719-5.816407 4.195313-10.785157 9.925782-11.789063.996093.125 1.996093.191406 3 .199219h130.355468c1.019532 0 2.03125-.066406 3.042969-.191406 5.710937 1.019531 9.875 5.980468 9.882813 11.78125zm-11.976563-23.976563h-132.25c-.621094 0-1.238281.027344-1.847656.078125-2.207031-.484375-4.25-1.539062-5.917969-3.0625 12.996094-4.109375 24.515625-11.925781 33.140625-22.484375h105.925781c6.597656 0 12.136719 4.96875 12.847656 11.523437.714844 6.558594-3.621093 12.601563-10.0625 14.019532-.609374-.046875-1.21875-.074219-1.835937-.074219zm0 0"/><path d="m327.171875 304.441406h.066406c3.3125.015625 6.011719-2.65625 6.03125-5.96875.015625-3.316406-2.65625-6.015625-5.96875-6.03125l-30.09375-.324218-12.0625-.128907c-3.316406-.035156-6.03125 2.621094-6.066406 5.933594s2.621094 6.03125 5.9375 6.066406l12.0625.128907c3.207031.023437 6.269531 1.332031 8.507813 3.632812.75.765625 1.390624 1.632812 1.910156 2.566406l-22.546875-.242187h-.066407c-3.3125-.015625-6.015624 2.65625-6.03125 5.96875-.019531 3.316406 2.65625 6.015625 5.96875 6.03125l22.539063.242187c-2.1875 3.738282-6.210937 6.019532-10.542969 5.976563l-12.0625-.128907c-2.457031-.027343-4.683594 1.449219-5.617187 3.722657-.933594 2.277343-.382813 4.890625 1.386719 6.597656l29.839843 28.808594c2.382813 2.304687 6.183594 2.238281 8.484375-.148438 2.300782-2.382812 2.234375-6.179687-.148437-8.484375l-19.167969-18.503906c9.871094-1.089844 18.066406-8.113281 20.65625-17.699219l6.785156.070313h.066406c3.3125.019531 6.011719-2.652344 6.03125-5.96875.015626-3.3125-2.65625-6.011719-5.96875-6.03125l-6.757812-.070313c-.523438-2.140625-1.34375-4.199219-2.433594-6.117187zm0 0"/></svg>