<?xml version="1.0"?>
<svg xmlns="http://www.w3.org/2000/svg" data-name="Layer 3" id="Layer_3" viewBox="0 0 64 64"><path d="M41.707,37.293a1,1,0,0,0-1.414,0l-3.939,3.939a2.716,2.716,0,0,1-3.708,0l-9.878-9.878a2.622,2.622,0,0,1,0-3.708l3.939-3.939a1,1,0,0,0,0-1.414l-13-13a1,1,0,0,0-1.414,0L3.414,18.172a8.242,8.242,0,0,0,0,11.656L34.172,60.586a8.242,8.242,0,0,0,11.656,0l8.879-8.879a1,1,0,0,0,0-1.414ZM13,11.414,24.586,23,23,24.586,11.414,13ZM44.414,59.172a6.243,6.243,0,0,1-8.828,0L4.828,28.414a6.243,6.243,0,0,1,0-8.828L10,14.414,21.586,26l-.232.232a4.621,4.621,0,0,0,0,6.536l9.878,9.878a4.621,4.621,0,0,0,6.536,0L38,42.414,49.586,54ZM51,52.586,39.414,41,41,39.414,52.586,51Z"/><path d="M46,1A17.019,17.019,0,0,0,29,18a16.832,16.832,0,0,0,2.969,9.569l-1.906,5.079a1,1,0,0,0,1.289,1.289l5.079-1.906A16.832,16.832,0,0,0,46,35,17,17,0,0,0,46,1Zm0,32a14.878,14.878,0,0,1-8.835-2.9,1,1,0,0,0-.941-.129l-3.515,1.318,1.318-3.515a1,1,0,0,0-.129-.941A14.987,14.987,0,1,1,46,33Z"/><path d="M46,5A13,13,0,1,0,59,18,13.015,13.015,0,0,0,46,5Zm0,24A11,11,0,1,1,57,18,11.013,11.013,0,0,1,46,29Z"/><path d="M50.879,12a3.142,3.142,0,0,0-2.207.914L44,17.586l-.672-.672a3.121,3.121,0,0,0-4.414,4.414L41.586,24a3.414,3.414,0,0,0,4.828,0l6.672-6.672A3.121,3.121,0,0,0,50.879,12Zm.793,3.914L45,22.586a1.451,1.451,0,0,1-2,0l-2.672-2.672a1.121,1.121,0,0,1,1.586-1.586l1.379,1.379a1,1,0,0,0,1.414,0l5.379-5.379a1.121,1.121,0,0,1,1.586,1.586Z"/></svg>
