<svg id="Layer_1" enable-background="new 0 0 64 64" viewBox="0 0 64 64" xmlns="http://www.w3.org/2000/svg"><g><g><path d="m42.75 64h-39.63c-1.56 0-2.83-1.26-2.83-2.82v-50.82c0-1.55 1.27-2.82 2.83-2.82h8.79c.28 0 .5.22.5.5s-.22.5-.5.5h-8.79c-1.01 0-1.83.82-1.83 1.82v50.82c0 1 .82 1.82 1.83 1.82h39.63c1.01 0 1.83-.82 1.83-1.82v-8.41c0-.28.22-.5.5-.5s.5.22.5.5v8.41c0 1.56-1.27 2.82-2.83 2.82z"/></g><g><path d="m45.08 24.33c-.28 0-.5-.22-.5-.5v-13.47c0-1-.82-1.82-1.83-1.82h-8.58c-.28 0-.5-.22-.5-.5s.22-.5.5-.5h8.58c1.56 0 2.83 1.26 2.83 2.82v13.47c0 .28-.23.5-.5.5z"/></g><g><path d="m34.18 13.98h-22.27c-.28 0-.5-.22-.5-.5v-8.26c0-.28.22-.5.5-.5h6.82c.28 0 .5.22.5.5s-.22.5-.5.5h-6.32v7.26h21.26v-7.26h-6.54c-.28 0-.5-.22-.5-.5s.22-.5.5-.5h7.04c.28 0 .5.22.5.5v8.26c.01.27-.22.5-.49.5z"/></g><g><path d="m22.93 9.45c-2.61 0-4.74-2.12-4.74-4.72s2.13-4.73 4.74-4.73 4.74 2.12 4.74 4.72-2.12 4.73-4.74 4.73zm0-8.45c-2.06 0-3.74 1.67-3.74 3.72s1.68 3.72 3.74 3.72 3.74-1.67 3.74-3.72-1.68-3.72-3.74-3.72z"/></g><g><path d="m27.17 22.05h-19.3c-.28 0-.5-.22-.5-.5s.22-.5.5-.5h19.3c.28 0 .5.22.5.5s-.22.5-.5.5z"/></g><g><path d="m22.02 29.59h-14.15c-.28 0-.5-.22-.5-.5s.22-.5.5-.5h14.16c.28 0 .5.22.5.5s-.23.5-.51.5z"/></g><g><path d="m18.01 36.61h-10.14c-.28 0-.5-.22-.5-.5s.22-.5.5-.5h10.14c.28 0 .5.22.5.5s-.22.5-.5.5z"/></g><g><path d="m39.36 54.34c-8.87 0-16.09-7.2-16.09-16.04s7.22-16.04 16.09-16.04 16.09 7.2 16.09 16.04-7.22 16.04-16.09 16.04zm0-31.08c-8.32 0-15.09 6.75-15.09 15.04s6.77 15.04 15.09 15.04 15.09-6.75 15.09-15.04-6.77-15.04-15.09-15.04z"/></g><g><path d="m39.36 49.78c-6.35 0-11.52-5.15-11.52-11.48s5.17-11.48 11.52-11.48 11.52 5.15 11.52 11.48-5.17 11.48-11.52 11.48zm0-21.97c-5.8 0-10.52 4.7-10.52 10.48s4.72 10.48 10.52 10.48 10.52-4.7 10.52-10.48-4.72-10.48-10.52-10.48z"/></g><g><g><path d="m43.22 36.16h-7.72c-.28 0-.5-.22-.5-.5s.22-.5.5-.5h7.73c.28 0 .5.22.5.5s-.23.5-.51.5z"/></g><g><path d="m40.79 45.08c-.13 0-.26-.05-.36-.15l-5.29-5.48c-.14-.14-.18-.36-.1-.54s.26-.3.46-.3h1.99c1.68 0 3.05-1.36 3.05-3.04s-1.37-3.04-3.05-3.04h-1.99c-.28 0-.5-.22-.5-.5s.22-.5.5-.5h7.73c.28 0 .5.22.5.5s-.22.5-.5.5h-3.07c.85.74 1.38 1.83 1.38 3.04 0 2.23-1.82 4.04-4.05 4.04h-.81l4.47 4.63c.19.2.19.52-.01.71-.1.08-.23.13-.35.13z"/></g></g><g><path d="m61.05 62.11c-.13 0-.25-.05-.35-.14l-8.19-7.99c-.1-.09-.15-.22-.15-.35s.05-.26.15-.36l.65-.65-3.12-2.97c-.2-.19-.21-.51-.02-.71s.51-.21.71-.02l3.14 2.99.88-.85c.2-.19.51-.19.7.01l8.1 8.02c.09.09.15.22.15.35s-.05.26-.15.36l-2.16 2.16c-.08.1-.21.15-.34.15zm-7.48-8.49 7.47 7.29 1.45-1.46-7.4-7.33z"/></g></g></svg>