<svg clip-rule="evenodd" fill-rule="evenodd" height="512" stroke-linejoin="round" stroke-miterlimit="2" viewBox="0 0 64 64" width="512" xmlns="http://www.w3.org/2000/svg"><g id="ICON"><path d="m21.126 4h-7.126c-1.658 0-3 1.343-3 3v5h-6c-2.761 0-5 2.239-5 5v6c0 2.05 1.234 3.812 3 4.584v2.832c-1.766.772-3 2.534-3 4.584v6c0 2.05 1.234 3.812 3 4.584v2.832c-1.766.772-3 2.534-3 4.584v6c0 2.761 2.239 5 5 5h32c2.05 0 3.812-1.234 4.584-3h15.416c1.658 0 3-1.343 3-3v-17.126c1.725-.444 3-2.01 3-3.874 0-2.209-1.791-4-4-4s-4 1.791-4 4c0 1.864 1.275 3.43 3 3.874v17.126c0 .553-.447 1-1 1h-15v-4h7c1.658 0 3-1.343 3-3v-5.126c1.725-.444 3-2.01 3-3.874 0-2.209-1.791-4-4-4s-4 1.791-4 4c0 1.864 1.275 3.43 3 3.874v5.126c0 .553-.447 1-1 1h-7c0-2.05-1.234-3.812-3-4.584v-2.832c1.766-.772 3-2.534 3-4.584v-2c0-.552-.448-1-1-1s-1 .448-1 1v2c0 1.657-1.343 3-3 3h-32c-1.657 0-3-1.343-3-3v-6c0-1.657 1.343-3 3-3h27c.552 0 1-.448 1-1s-.448-1-1-1h-27v-2h25c.552 0 1-.448 1-1s-.448-1-1-1h-25c-1.657 0-3-1.343-3-3v-6c0-1.657 1.343-3 3-3h21c.552 0 1-.448 1-1s-.448-1-1-1h-13v-5c0-.553.447-1 1-1h7.126c.445 1.724 2.012 3 3.874 3 2.208 0 4-1.792 4-4s-1.792-4-4-4c-1.862 0-3.429 1.276-3.874 3zm15.874 58h-32c-1.657 0-3-1.343-3-3v-6c0-1.657 1.343-3 3-3h32c1.657 0 3 1.343 3 3v6c0 1.657-1.343 3-3 3zm-27-6c0-1.656-1.344-3-3-3s-3 1.344-3 3 1.344 3 3 3 3-1.344 3-3zm12 0c0-1.656-1.344-3-3-3s-3 1.344-3 3 1.344 3 3 3 3-1.344 3-3zm-6 0c0-1.656-1.344-3-3-3s-3 1.344-3 3 1.344 3 3 3 3-1.344 3-3zm9 1h11c.552 0 1-.448 1-1s-.448-1-1-1h-11c-.552 0-1 .448-1 1s.448 1 1 1zm-17-1c0 .552-.448 1-1 1s-1-.448-1-1 .448-1 1-1 1 .448 1 1zm12 0c0 .552-.448 1-1 1s-1-.448-1-1 .448-1 1-1 1 .448 1 1zm-6 0c0 .552-.448 1-1 1s-1-.448-1-1 .448-1 1-1 1 .448 1 1zm23-10h-32v2h32zm14-1c-1.105 0-2-.895-2-2s.895-2 2-2 2 .895 2 2-.895 2-2 2zm-41-7c0-1.656-1.344-3-3-3s-3 1.344-3 3 1.344 3 3 3 3-1.344 3-3zm12 0c0-1.656-1.344-3-3-3s-3 1.344-3 3 1.344 3 3 3 3-1.344 3-3zm-6 0c0-1.656-1.344-3-3-3s-3 1.344-3 3 1.344 3 3 3 3-1.344 3-3zm-2 0c0 .552-.448 1-1 1s-1-.448-1-1 .448-1 1-1 1 .448 1 1zm-6 0c0 .552-.448 1-1 1s-1-.448-1-1 .448-1 1-1 1 .448 1 1zm12 0c0 .552-.448 1-1 1s-1-.448-1-1 .448-1 1-1 1 .448 1 1zm39 1c-1.105 0-2-.895-2-2s.895-2 2-2 2 .895 2 2-.895 2-2 2zm-34 0h11c.552 0 1-.448 1-1s-.448-1-1-1h-11c-.552 0-1 .448-1 1s.448 1 1 1zm22.488-1.127 2.367-1.321c9.814-5.477 15.278-15.946 13.948-26.675-.039-.314-.224-.59-.498-.746l-15.81-9c-.307-.175-.683-.175-.989 0l-15.81 9c-.275.156-.459.432-.498.746-1.33 10.729 4.133 21.198 13.947 26.675l2.368 1.321c.303.169.672.169.975 0zm1.392-3.067-1.88 1.049s-1.88-1.049-1.88-1.049c-8.935-4.987-13.999-14.43-12.993-24.188 0-.001 14.873-8.468 14.873-8.468s14.874 8.467 14.874 8.467c1.005 9.759-4.059 19.202-12.994 24.189zm-2.772-1.74-.002-.001s.341.191.396.222c.29.162.497.132.497.132s.207.03.497-.132c.055-.031.397-.221.397-.221h-.002l.014-.007c7.758-4.33 12.339-12.287 12.084-20.661-.011-.349-.202-.667-.505-.839l-11.99-6.825c-.307-.175-.683-.175-.989 0l-11.989 6.825c-.303.172-.494.49-.505.839-.255 8.374 4.326 16.331 12.084 20.661zm.892-1.793c-6.872-3.866-11.017-10.842-10.999-18.258 0 0 10.999-6.261 10.999-6.261s10.999 6.261 10.999 6.261c.018 7.416-4.127 14.392-10.999 18.258zm-37-11.273c0-1.656-1.344-3-3-3s-3 1.344-3 3 1.344 3 3 3 3-1.344 3-3zm12 0c0-1.656-1.344-3-3-3s-3 1.344-3 3 1.344 3 3 3 3-1.344 3-3zm-6 0c0-1.656-1.344-3-3-3s-3 1.344-3 3 1.344 3 3 3 3-1.344 3-3zm30-.171v2.128c0 .551.448.999 1 1 .552 0 1-.449 1-1v-2.128c1.165-.412 2-1.524 2-2.829 0-1.656-1.344-3-3-3s-3 1.344-3 3c0 1.305.835 2.417 2 2.829zm-21 1.171h2c.552 0 1-.448 1-1s-.448-1-1-1h-2c-.552 0-1 .448-1 1s.448 1 1 1zm-11-1c0 .552-.448 1-1 1s-1-.448-1-1 .448-1 1-1 1 .448 1 1zm-6 0c0 .552-.448 1-1 1s-1-.448-1-1 .448-1 1-1 1 .448 1 1zm12 0c0 .552-.448 1-1 1s-1-.448-1-1 .448-1 1-1 1 .448 1 1zm27.022-2c.542-.012.978-.456.978-1 0-.552-.448-1-1-1s-1 .448-1 1c0 .544.436.988.978 1h.022c.007-.001.015 0 .022 0zm-24.022-13c0-1.104.896-2 2-2s2 .896 2 2-.896 2-2 2-2-.896-2-2z"/></g></svg>