<svg id="Layer_1" enable-background="new 0 0 64 64" viewBox="0 0 64 64" xmlns="http://www.w3.org/2000/svg"><path d="m2.3813477 31.1235352c0 1.5058594 1.1298828 2.7719727 2.6293945 2.9462891l2.9360352.3354492c.394043.0463867.7226562.328125.8144531.6923828.5185547 2.1269531 1.3618164 4.1738281 2.5102539 6.0869141.1982422.3276367.1655273.7402344-.0864258 1.0551758l-1.8442383 2.3291016c-.9155273 1.184082-.8110352 2.8701172.2416992 3.9223633l1.8896484 1.8896484c1.0522461 1.0532227 2.7397461 1.1552734 3.9311523.2348633l2.3242188-1.8408203c.3115234-.2490234.7246094-.2817383 1.0546875-.0805664 1.9091797 1.1455078 3.9560547 1.9892578 6.0751953 2.5053711.3725586.0942383.6542969.4228516.7001953.8129883l.3364258 2.9418945c.1738281 1.4980469 1.4399414 2.6274414 2.9458008 2.6274414h2.6669922c1.5058594 0 2.7719727-1.1293945 2.9462891-2.6293945l.3354492-2.9360352c.0463867-.394043.328125-.7226562.6923828-.8144531 1.9966431-.4868774 3.9197998-1.2714233 5.7631836-2.3344727l6.5771484 6.5771484c.0008545.0008545.0010986.0020752.0019531.0029297s.0020752.0010986.0029297.0019531l3.0263672 3.0263672c.0004272.0004272.0005493.0010376.0009766.0014648s.0010376.0005493.0014648.0009766l3.2299805 3.2299805c.1953125.1953125.4511719.2929688.7070312.2929688s.5117188-.0976562.7070312-.2929688l5.8266602-5.8261719c.1875-.1875.2929688-.4418945.2929688-.7070312s-.1054688-.5195312-.2929688-.7070312l-11.920166-11.920166-.2473145-.3122559c-.2490234-.3115234-.2817383-.7236328-.0810547-1.0546875 1.1459961-1.9091797 1.9897461-3.9560547 2.5058594-6.0751953.0947266-.3725586.4228516-.6542969.8134766-.7001953l2.940918-.3364258c1.4980469-.1738281 2.6274414-1.4399414 2.6274414-2.9458008v-2.6665039c0-1.5058594-1.1293945-2.7724609-2.6274414-2.9462891-.0004883 0-.0009766-.0004883-.0014648-.0004883l-2.9360352-.3354492c-.394043-.0463867-.722168-.328125-.8144531-.6923828-.5185547-2.1274414-1.3623047-4.1738281-2.5102539-6.0864258-.1987305-.3276367-.1660156-.7402344.0864258-1.0556641l1.8442383-2.3291016c.9150391-1.1831055.8115234-2.8696289-.2416992-3.9223633l-1.8896484-1.8901367c-1.0537109-1.0532227-2.7402344-1.1567383-3.9311523-.234375l-2.3242188 1.8408203c-.3115234.2485352-.7226562.28125-1.0551758.0810547-1.9091797-1.1455078-3.9560547-1.9892578-6.074707-2.5058594-.3725586-.0942383-.6542969-.4228516-.7001953-.8134766l-.3364258-2.940918c-.1738281-1.4980469-1.4399414-2.6274414-2.9458008-2.6274414h-2.6669922c-1.5058594 0-2.7719727 1.1293945-2.9462891 2.6289062l-.3354492 2.9360352c-.0463867.394043-.328125.7226562-.6923828.8144531-2.1279297.519043-4.1748047 1.362793-6.0869141 2.5107422-.3271484.1977539-.7387695.1660156-1.0551758-.0869141l-2.3291016-1.8442383c-1.1821289-.9150391-2.8691406-.8120117-3.9223633.2416992l-1.8896484 1.8896484c-1.0532227 1.0527344-1.1567383 2.7392578-.2348633 3.9311523l1.8408203 2.3242188c.2485352.3110352.28125.7241211.0805664 1.0551758-1.1455078 1.909668-1.9892578 3.9560547-2.5053711 6.074707-.0942383.3725586-.4228516.6542969-.8134766.7001953l-2.940918.3364258c-1.4980469.1738281-2.6279297 1.4404297-2.6279297 2.9462891v2.6665041zm44.0512695 20.1015625c.2020874.0233765.4049683.0205078.6068726.0028076.0523682-.0046997.1032104-.0159302.1553955-.0233154.1514893-.0213013.3002319-.0527954.4471436-.097229.0587769-.0177612.1158447-.0372925.1735229-.0587158.1418457-.0526733.2781982-.1176147.4117432-.1923828.0506592-.0282593.1020508-.0526123.1512451-.0840454.175415-.1124268.343689-.2389526.4959717-.3913574l1.8896484-1.8891602c.1452637-.1452637.2682495-.3045044.3771973-.4709473.0353394-.053894.0614014-.1112061.0928345-.1669312.0662842-.1173096.1275635-.2359009.1766968-.3598633.0101929-.0258179.0274048-.0489502.0368652-.0750122l1.4903564 1.4902954-4.4082642 4.4156494-2.0996704-2.0997925c.0007934.0001221.0016479-.000122.0024414.0000001zm9.5354004.7138671-4.4082642 4.4160156-1.6158447-1.6159668 4.4083252-4.4157715zm-1.1760254 7.6484375-1.8181763-1.8182983 4.4083252-4.4161377 1.8224487 1.8223267zm-50.4106445-31.1303711c0-.4902344.3691406-.902832.8569336-.9594727l2.9428711-.3364258c1.2119141-.1430664 2.2250977-1.0258789 2.5234375-2.2050781.4707031-1.9311523 1.2373047-3.7910156 2.2773438-5.5239258.628418-1.0375977.5351562-2.378418-.2285156-3.3330078l-1.8305664-2.3115234c-.3012695-.3891602-.2695312-.9414062.0737305-1.284668l1.8896484-1.8891602c.3427734-.34375.8964844-.3745117 1.2758789-.0810547l2.3164062 1.8339844c.9589844.7680664 2.2998047.8608398 3.3330078.234375 1.7358398-1.0415039 3.5957031-1.8085938 5.5361328-2.2822266 1.1708984-.2958984 2.0537109-1.309082 2.1972656-2.5244141l.3354492-2.9379883c.0571289-.4892578.4692383-.8579102.9594727-.8579102h2.6669922c.4902344 0 .9023438.3686523.9589844.8564453l.3364258 2.9428711c.1430664 1.2119141 1.0258789 2.2250977 2.2050781 2.5234375 1.9311523.4707031 3.7910156 1.2382812 5.5244141 2.2773438 1.0366211.628418 2.378418.5341797 3.3325195-.2285156l2.3115234-1.8305664c.3891602-.3012695.9418945-.2695312 1.284668.0737305l1.8896484 1.8896484c.3432617.3432617.375.8955078.0805664 1.2758789l-1.8339844 2.3164062c-.7670898.9584961-.8603516 2.2998047-.234375 3.3334961 1.0419922 1.7363281 1.809082 3.5957031 2.2822266 5.5356445.2958984 1.1708984 1.309082 2.0537109 2.5244141 2.1972656l2.9379883.3354492c.4892578.0571289.8579102.4697266.8579102.9599609v2.6665039c0 .4902344-.3686523.9023438-.8564453.9589844l-2.9428711.3364258c-1.2119141.1430664-2.2250977 1.0258789-2.5234375 2.2050781-.4707031 1.9316406-1.237793 3.7915039-2.2773438 5.5244141-.628418 1.0366211-.5351562 2.3774414.2294922 3.3334961l1.8295898 2.3105469c.3007812.3891602.2695312.9414062-.0737305 1.284668l-1.8896484 1.8896484c-.3432617.3427734-.8964844.3745117-1.2758789.0805664l-2.3183594-1.8354492c-.7788086-.6206055-1.800293-.8095703-2.7109375-.5097656-.0042114.0012817-.0106812.0040283-.0150146.0053711-.0008545.0003052-.001709.0001831-.0025635.0004883-.0012817.0004272-.0022583.0012817-.00354.001709-.1647339.0514526-.399353.1346436-.5985107.2697754-1.7373047 1.0419922-3.597168 1.809082-5.5366211 2.2817383-1.1708984.2958984-2.0537109 1.309082-2.1972656 2.5249023l-.3354492 2.9379883c-.0571289.4892578-.4692383.8579102-.9594727.8579102h-2.6669922c-.4902344 0-.9023438-.3686523-.9589844-.8564453l-.3364258-2.9433594c-.1430664-1.2119141-1.0258789-2.2250977-2.2050781-2.5234375-1.9316406-.4707031-3.7915039-1.2373047-5.5244141-2.2768555-.4584961-.2783203-.9765625-.4150391-1.4946289-.4150391-.6533203 0-1.3056641.2172852-1.8378906.6430664l-2.3115234 1.8305664c-.3896484.3007812-.9414062.269043-1.284668-.0737305l-1.8896484-1.8901367c-.3432617-.3427734-.3745117-.8950195-.0805664-1.2753906l1.8339842-2.316406c.7670898-.9584961.8603516-2.2998047.2338867-3.3330078-1.0419922-1.7363281-1.809082-3.5961914-2.2817383-5.5361328-.2958984-1.1708984-1.309082-2.0537109-2.5244141-2.1972656l-2.9379883-.3354492c-.4892578-.0571289-.8583984-.4692383-.8583984-.9594727v-2.666504z"/><path d="m30.1733398 47.2202148c.725708 0 1.4498291-.0457153 2.1674805-.1359863 2.1529541-.2706909 4.2475586-.9420166 6.1518555-1.9802246.3231201-.175354.6403809-.3610229.9512939-.5565796.3111572-.1956787.6159058-.4013062.9139404-.616333.154541-.1115112.302063-.2324829.4528809-.3490601.1397095-.1079712.2830811-.2111816.4194946-.3233643.2416992-.1987915.4752808-.4074097.7061768-.6189575.0401001-.0367432.0828857-.0703735.1226196-.1074829 1.0751343-1.0037231 2.0267334-2.1445923 2.824707-3.3945312 1.7788086-2.7773438 2.7192383-6.0097656 2.7192383-9.3476562 0-9.6108398-7.8188477-17.4296875-17.4296875-17.4296875s-17.4301758 7.8188477-17.4301758 17.4296875 7.819336 17.4301757 17.4301758 17.4301757zm2.0620118-23.2807617-3.4765625-3.484375c3.3491211-.5771484 6.7749023.4882812 9.2426758 2.9555664 3.0820312 3.0825195 3.9570312 7.8364258 2.1767578 11.8300781-.168457.378418-.0864258.8212891.206543 1.1142578l2.34552 2.3460083c-.1489868.2090454-.295105.4199829-.4539185.6210327-.1199341.1518555-.2349243.3076782-.3602295.4547729-.3643799.4277344-.7478638.8380737-1.1549683 1.2229614-.0258789.0244751-.0484009.0523682-.0744019.0766602-.4356689.406189-.8991699.7803345-1.3779907 1.1333008-.1465454.1079712-.3009644.2042236-.4511719.3069458-.2268066.1550293-.4624634.2959595-.6973267.4385376l-2.2091064-2.2086182c-.1914062-.1914062-.4472656-.2929688-.7075195-.2929688-.1342773 0-.2700195.0268555-.3984375.0830078-3.8447266 1.6728516-8.4555664.9428711-11.472168-1.815918-2.6894531-2.4570312-3.9003906-6.078125-3.3017578-9.5771484l3.4760742 3.4760742c2.4008789 2.3881836 6.2978516 2.3881836 8.6870117-.0019531 1.1586914-1.1582031 1.796875-2.6992188 1.796875-4.3393555.0000001-1.6396482-.6381835-3.1806639-1.7958983-4.338867zm-2.0620118-9.5791015c8.5078125 0 15.4296875 6.921875 15.4296875 15.4296875 0 2.5283813-.6131592 4.9848633-1.7746582 7.1807251l-1.5578613-1.5581665c1.7509766-4.6044922.6450195-9.9165039-2.8549805-13.4160156-3.4121094-3.4116211-8.3637695-4.5688477-12.9228516-3.0214844-.3271484.1108398-.5737305.3828125-.6523438.7192383s.0219727.6894531.265625.9335938l4.7143555 4.7250977c.7807617.78125 1.2109375 1.8198242 1.2109375 2.925293s-.4301758 2.1445312-1.2109375 2.925293c-1.6103516 1.6113281-4.2397461 1.6123047-5.8608398 0l-4.7138672-4.7138672c-.2441406-.2446289-.5957031-.3457031-.9331055-.2670898-.3364258.078125-.6083984.3242188-.7202148.6508789-1.6118164 4.7172852-.2646484 9.9467773 3.4316406 13.3232422 3.4780273 3.1811523 8.5063477 4.1040039 12.980957 2.4316406l1.3082886 1.3082886c-1.9296875.8380127-4.0255737 1.2835083-6.1398315 1.2835083-8.5083008 0-15.4301758-6.921875-15.4301758-15.4301758.0000001-8.5078127 6.9218751-15.4296877 15.4301758-15.4296877z"/><path d="m34.715332 24.1948242c.8525391.5512695 2.0273438 1.5473633 2.7817383 3.1635742 1.1757812 2.5180664.5673828 4.9165039.2509766 5.8310547-.1801758.5219727.0966797 1.0913086.6186523 1.2719727.1079102.0371094.2182617.0551758.3266602.0551758.4145508 0 .8017578-.2597656.9453125-.6738281.3955078-1.1445312 1.1557617-4.1499023-.3291016-7.3300781-.9560547-2.0473633-2.4355469-3.3037109-3.5083008-3.9975586-.4633789-.2983398-1.0830078-.1665039-1.3828125.296875-.2998047.4638671-.1669922 1.0830077.296875 1.3828124z"/></svg>