<svg id="You_haven_t_added_any_document_to_library" viewBox="0 0 128 128" xmlns="http://www.w3.org/2000/svg" data-name="You haven&amp;apos;t added any document to library"><path d="m83.67 61.06c-.43-5.14-2.63-18.79-2.73-19.42-1.74-14.97-12.69-26.26-25.52-26.26s-23.78 11.28-25.52 26.26c-.11.67-2.3 14.28-2.73 19.42-.58 6.97.75 11.73 2.5 14.92-1.59.26-3.16.74-4.63 1.43-1.75.83-3.34 1.96-4.76 3.36-4.7 4.71-6.26 11.79-3.97 18.02.62 1.72 1.52 3.3 2.65 4.73l-1.92 1.92-.92-.92c-.38-.38-.88-.59-1.41-.59s-1.04.21-1.41.59l-7.95 7.95c-.88.88-1.36 2.04-1.36 3.28s.48 2.41 1.36 3.28l.92.92c.88.88 2.04 1.36 3.28 1.36s2.41-.48 3.28-1.36l7.95-7.95c.78-.78.78-2.05 0-2.83l-.92-.92 1.92-1.92c1.42 1.12 3 2.02 4.72 2.65.53.2 1.08.36 1.65.5v3.58c0 1.1.9 2 2 2h50.52c1.1 0 2-.9 2-2v-12.29c0-7.03-2.65-13.65-7.47-18.74 3.82-2.18 9.57-7.71 8.46-20.98zm-73.66 56.08c-.25.25-.66.25-.91 0l-.92-.92c-.16-.17-.19-.36-.19-.46s.02-.29.19-.46l6.54-6.54.91.91s0 0 0 0l.91.91-6.54 6.54zm45.41-97.76c10.17 0 18.98 8.67 21.21 20.52-16.01-.65-19.33-7.95-19.35-8-.31-.78-1.05-1.29-1.92-1.25-.84.02-1.59.59-1.85 1.39-.02.08-2.59 7.24-19.3 7.86 2.23-11.85 11.04-20.53 21.21-20.53zm16.57 28.49c0 8.53-4.93 16.13-12.06 18.49-.09.03-.18.06-.18.06-2.76.89-6 .86-8.57.03-.09-.03-.18-.06-.33-.11-7.07-2.34-12-9.94-12-18.47 0-1.71.12-3.02.41-4.36 9.48-1.21 14.08-4.66 16.26-7.24 2.29 2.52 6.98 5.95 16.04 7.2.3 1.36.42 2.68.42 4.4zm-31.32 29.99c-1.92-1.06-4.05-1.74-6.24-1.99-2.65-3.26-3.79-8.23-3.26-14.48.33-3.97 1.82-13.61 2.43-17.47.52-.01 1.04-.03 1.54-.05-.19 1.23-.28 2.51-.28 4.01 0 9.65 5.39 18.33 13.2 21.68v.02 4.96c-2.62.73-5.1 1.85-7.39 3.33zm11.39-1.77v-5.31c.07.01.15.02.23.03.36.06.72.11 1.08.15.16.02.32.04.47.05.52.04 1.04.07 1.57.07h.01c.53 0 1.06-.03 1.58-.07.15-.01.29-.04.44-.05.38-.04.75-.09 1.12-.16.07-.01.15-.02.22-.03v9.14c0 1.85-1.51 3.35-3.36 3.35s-3.37-1.5-3.37-3.35v-3.83zm-28.93 26.1c-1.37-1.37-2.39-2.97-3.05-4.77-1.75-4.79-.56-10.21 3.04-13.82 1.08-1.07 2.31-1.94 3.65-2.58 1.77-.84 3.7-1.27 5.65-1.27.29 0 .57 0 .86.03 2.15.13 4.25.8 6.1 1.95.06.04.13.08.18.12.03.03.07.05.1.07.72.46 1.42 1.02 2.07 1.67 1.93 1.93 3.19 4.35 3.64 7.01.09.53.15 1.06.18 1.59.2 3.7-1.17 7.34-3.83 9.98-1.49 1.49-3.25 2.57-5.17 3.2-1.82.6-3.77.78-5.76.53-.11-.01-.22-.01-.33-.03l-.34-.05c-.76-.13-1.51-.33-2.22-.59-1.81-.67-3.42-1.69-4.78-3.06zm55.56 8.89h-46.53v-1.04s.07 0 .11 0h.13c.23 0 .47-.02.7-.03.3-.01.6-.02.9-.04.28-.03.56-.07.84-.11s.55-.07.83-.12c.34-.06.67-.15 1-.24.21-.05.42-.1.63-.16.4-.12.79-.26 1.18-.41.14-.05.28-.09.41-.15.43-.18.85-.38 1.27-.59.09-.04.18-.08.27-.13.43-.22.84-.47 1.25-.73.07-.05.15-.09.23-.13.39-.26.76-.54 1.13-.83.08-.07.17-.12.26-.19.44-.36.87-.75 1.28-1.15 3.96-3.95 5.74-9.6 4.76-15.1-.6-3.47-2.24-6.64-4.75-9.15-.12-.12-.24-.24-.37-.36 1.24-.69 2.53-1.26 3.87-1.7v1.21c0 4.06 3.3 7.35 7.37 7.35s7.36-3.3 7.36-7.35v-1.21c2.76.92 5.31 2.36 7.56 4.24 0 0 .02.01.02.02.52.43 1.02.88 1.5 1.36 4.39 4.39 6.81 10.24 6.81 16.46v10.29zm-6.63-31.89c-2.77-2.14-5.9-3.71-9.27-4.65v-4.97s0-.01 0-.02c7.85-3.4 13.2-12.06 13.2-21.68 0-1.51-.09-2.78-.28-4.02.5.03 1.02.05 1.54.06.61 3.86 2.1 13.5 2.44 17.48 1.1 13.24-5.31 16.91-7.64 17.8z"/><path d="m49.05 44.77c-1.37 0-2.49 1.71-2.49 3.83s1.11 3.83 2.49 3.83 2.49-1.71 2.49-3.83-1.11-3.83-2.49-3.83z"/><path d="m62.27 52.42c1.37 0 2.49-1.71 2.49-3.83s-1.11-3.83-2.49-3.83-2.49 1.71-2.49 3.83 1.11 3.83 2.49 3.83z"/><path d="m37.49 100.79c.39.39.9.59 1.41.59s1.02-.2 1.41-.59c.78-.78.78-2.05 0-2.83l-5.07-5.07 5.07-5.07c.78-.78.78-2.05 0-2.83s-2.05-.78-2.83 0l-5.07 5.07-5.07-5.07c-.78-.78-2.05-.78-2.83 0s-.78 2.05 0 2.83l5.07 5.07-5.07 5.07c-.78.78-.78 2.05 0 2.83.39.39.9.59 1.41.59s1.02-.2 1.41-.59l5.07-5.07 5.07 5.07z"/><path d="m102.7 6.67c-11.76 0-21.33 8.11-21.33 18.08 0 5.76 3.14 11.04 8.49 14.44-.56.81-1.22 1.41-1.99 1.79-.84.43-1.28 1.38-1.04 2.3.23.88 1.03 1.49 1.93 1.49h.1c.23-.01 5.38-.29 9.93-2.25 1.27.2 2.58.3 3.9.3 11.75 0 21.31-8.11 21.31-18.07s-9.56-18.08-21.31-18.08zm0 32.16c-1.29 0-2.56-.12-3.79-.34-.41-.08-.84-.02-1.21.15-1.17.55-2.43.96-3.63 1.26.11-.23.22-.46.32-.7.4-.96 0-2.08-.93-2.55-5.06-2.61-8.08-7.05-8.08-11.89 0-7.77 7.77-14.08 17.33-14.08s17.31 6.32 17.31 14.08-7.77 14.07-17.31 14.07z"/><path d="m102.7 13.95c-3.4 0-6.16 2.76-6.16 6.16 0 1.1.9 2 2 2s2-.9 2-2c0-1.19.97-2.16 2.16-2.16s2.16.97 2.16 2.16-.97 2.16-2.16 2.16c-1.1 0-2 .9-2 2v4.29c0 1.1.9 2 2 2s2-.9 2-2v-2.63c2.42-.83 4.16-3.13 4.16-5.83 0-3.4-2.76-6.16-6.16-6.16z"/><path d="m102.7 31.49c-1.3 0-2.36 1.05-2.36 2.36s1.05 2.36 2.36 2.36 2.36-1.05 2.36-2.36-1.05-2.36-2.36-2.36z"/></svg>