<svg id="Layer_1" viewBox="0 0 512 512" xmlns="http://www.w3.org/2000/svg" data-name="Layer 1"><path d="m316.369 142.091a43.124 43.124 0 0 0 -15.112 78.247l.011.007a43.1 43.1 0 0 0 59.737-12.238l.007-.01a43.133 43.133 0 0 0 -44.643-66.006zm-39.7 10.321a57.94 57.94 0 0 1 96.688 63.873l-.451.683-.023.023a57.96 57.96 0 0 1 -79.806 15.7l-.684-.451-.023-.024a57.96 57.96 0 0 1 -15.7-79.806zm159.533 88.61-15.411 23.336 43.723 28.875a13.983 13.983 0 0 0 15.4-23.345l-43.71-28.866zm-281.017 98.578 1.752-1.476a7.389 7.389 0 0 1 9.512 11.31l-11.264 9.487v53.735a7.424 7.424 0 0 1 -7.424 7.424h-78.6a7.424 7.424 0 0 1 -7.424-7.424v-78.6a7.424 7.424 0 0 1 7.424-7.424h78.6a7.424 7.424 0 0 1 7.424 7.424zm-69.651 32.866a7.387 7.387 0 1 1 9.222-11.542l18.007 14.405 27.574-23.224v-10.623h-63.749v63.75h63.749v-33.805l-22.695 19.115a7.393 7.393 0 0 1 -9.368.116zm215.553-95.694a7.4 7.4 0 1 1 0 14.79l-102.626-.114a7.395 7.395 0 0 1 0-14.79zm-145.9-46.07 1.752-1.476a7.389 7.389 0 0 1 9.512 11.311l-11.264 9.487v53.734a7.424 7.424 0 0 1 -7.424 7.425h-78.6a7.424 7.424 0 0 1 -7.424-7.425v-78.6a7.424 7.424 0 0 1 7.424-7.424h78.6a7.424 7.424 0 0 1 7.424 7.424v5.542zm-69.653 32.866a7.387 7.387 0 0 1 9.222-11.542l18.007 14.406 27.574-23.224v-10.623h-63.749v63.749h63.749v-33.8l-22.695 19.115a7.393 7.393 0 0 1 -9.368.116l-22.74-18.193zm69.651-141.768 1.752-1.475a7.389 7.389 0 0 1 9.512 11.31l-11.264 9.487v53.735a7.424 7.424 0 0 1 -7.424 7.424h-78.6a7.424 7.424 0 0 1 -7.424-7.424v-78.6a7.424 7.424 0 0 1 7.424-7.424h78.6a7.424 7.424 0 0 1 7.424 7.424zm-69.651 32.871a7.387 7.387 0 1 1 9.222-11.542l18.007 14.405 27.574-23.224v-10.623h-63.749v63.75h63.749v-33.805l-22.695 19.115a7.393 7.393 0 0 1 -9.368.116zm262.443 256.629a7.425 7.425 0 0 1 -14.849 0v-55.477a7.425 7.425 0 0 1 14.849 0zm0 26.145a7.425 7.425 0 0 1 -14.849 0v-.009a7.425 7.425 0 0 1 14.849 0zm-3.586-344.057v8.595a84.75 84.75 0 0 0 -82.952 26.546l-62.978-.069a7.4 7.4 0 1 0 0 14.79l52.578.058a84.134 84.134 0 0 0 -9 24.5l-43.574-.049a7.4 7.4 0 0 0 0 14.791l41.975.047a84.9 84.9 0 0 0 18.682 54.826l-60.657-.067a7.4 7.4 0 0 0 0 14.791l76.076.084q1.543 1.146 3.151 2.233l.019.019.684.451a84.333 84.333 0 0 0 63.57 12.286q1.219-.251 2.43-.535v24.575a30.224 30.224 0 0 0 -3.838-.242 29.023 29.023 0 0 0 -14.613 3.862h-.029a29.025 29.025 0 0 0 -10.628 10.739l-23.521 40.739-93.3-.1a7.395 7.395 0 1 0 0 14.79l84.767.094-4.45 7.708v.029l-9.683 16.755-70.642-.079a7.4 7.4 0 0 0 0 14.791l62.108.069-18.3 31.69a29.215 29.215 0 0 0 -3.987 13.352h-212.419v-416.963h253.64v57.469a7.425 7.425 0 0 0 7.425 7.425zm-50.045-54.4v39.551h39.547l-14.133-14.133-.077-.076-25.337-25.338zm-231.729 421.317v23.2h318.531v-7.627h-113.605a28.824 28.824 0 0 1 -25.27-14.6v-.029q-.271-.47-.524-.944zm318.531-128.141v-84.5a84.193 84.193 0 0 1 -21.909 14.055v36.006a29.783 29.783 0 0 1 6.57 7.9l.013-.007 15.326 26.545zm1.271 31.827a7.405 7.405 0 0 1 -.526-.911l-28.893-50.037v-.029a14.428 14.428 0 0 0 -4.655-4.962 7.555 7.555 0 0 1 -.826-.508 15.28 15.28 0 0 0 -14.194.142l.008.013a14.371 14.371 0 0 0 -5.234 5.344l-36.5 63.228-.013-.007-11.696 20.255c-.075.139-.153.275-.236.409l-24.563 42.544a14.356 14.356 0 0 0 -1.983 7.205 13.829 13.829 0 0 0 .491 3.647 7.474 7.474 0 0 1 .24.792 15.253 15.253 0 0 0 1.24 2.745l.012-.007a13.733 13.733 0 0 0 12.452 7.177h146.02a14.274 14.274 0 0 0 12.451-21.531v-.028l-36.493-63.208-.012.007zm10.068-128.612c.2.123.389.255.573.4l20.092 13.269 5.968-9.036-20.672-13.652q-1.341 2.337-2.846 4.619l-.451.683-.019.019q-1.28 1.9-2.645 3.7zm-11.339-114.33v-54.506h-38.255l14.171 14.171a7.4 7.4 0 0 1 2.174 5.249v21.01a85.214 85.214 0 0 1 12.4 6.789l.683.451.019.019a85.039 85.039 0 0 1 8.805 6.817zm1.593 24.058a69.824 69.824 0 0 1 .513 77.679l-.007.01a69.491 69.491 0 0 1 -33.466 26.8 7.387 7.387 0 0 0 -1.069.4 69.819 69.819 0 0 1 -62.123-7.4l-.021-.014a69.759 69.759 0 0 1 -19.8-96.66l.013-.019a69.793 69.793 0 0 1 82.019-27.174 7.28 7.28 0 0 0 .876.325 70.056 70.056 0 0 1 13.78 7.056l.01.007a69.667 69.667 0 0 1 18.733 18.2 7.444 7.444 0 0 0 .545.791zm-54.696-93.407h60.527a7.424 7.424 0 0 1 7.428 7.419v79.181a84.828 84.828 0 0 1 8.724 74.444l22.564 14.9.643-.975a7.409 7.409 0 0 1 10.269-2.089l49.9 32.954a28.8 28.8 0 0 1 -31.754 48.054l-49.9-32.954a7.408 7.408 0 0 1 -2.088-10.266l.635-.962-8.993-5.938v102.414l6.33 10.965v.029l36.493 63.208.012-.008a29.121 29.121 0 0 1 -25.269 43.8h-17.566v15.054a7.424 7.424 0 0 1 -7.425 7.424h-333.382a7.424 7.424 0 0 1 -7.424-7.424v-30.625h-29.333a7.424 7.424 0 0 1 -7.425-7.424v-431.811a7.424 7.424 0 0 1 7.425-7.424h268.486a7.4 7.4 0 0 1 5.287 2.213z" fill-rule="evenodd"/></svg>