<?xml version="1.0" encoding="UTF-8"?>
<svg xmlns="http://www.w3.org/2000/svg" id="Line_stroke_Ex" data-name="Line stroke Ex" width="512" height="512" viewBox="0 0 512 512"><g><path d="M24,256H48v32H64V248a8,8,0,0,0-8-8H32v-4.236l101.1-83.67-10.2-12.326-104,86.069A8,8,0,0,0,16,232v16A8,8,0,0,0,24,256Z"/><path d="M493.1,225.837,440,181.892V88h8V72H352V88h8v27.685L261.1,33.837a8,8,0,0,0-10.2,0l-112,92.689,10.2,12.327L256,50.384l224,185.38V240H456a8,8,0,0,0-8,8v72h16V256h24a8,8,0,0,0,8-8V232A8,8,0,0,0,493.1,225.837ZM376,128.926V88h48v80.65l-17.143-14.187Z"/><path d="M488,432H464V336H448v96H416V304a64,64,0,0,0-128,0V432H247.889a18.1,18.1,0,0,0,.111-2V402a18.027,18.027,0,0,0-16.122-17.9A18.153,18.153,0,0,0,232,382V354a18.153,18.153,0,0,0-.122-2.1A18.027,18.027,0,0,0,248,334V306a18.027,18.027,0,0,0-16.122-17.9A18.153,18.153,0,0,0,232,286V258a18.021,18.021,0,0,0-18-18H122a18.021,18.021,0,0,0-18,18v28a18.027,18.027,0,0,0,16.122,17.9A18.153,18.153,0,0,0,120,306v5.509A71.978,71.978,0,0,0,42.793,432H24a8,8,0,0,0-8,8v32a8,8,0,0,0,8,8H488a8,8,0,0,0,8-8V440A8,8,0,0,0,488,432ZM304,304a48,48,0,0,1,96,0V432H304ZM232,430a2,2,0,0,1-2,2H138a2,2,0,0,1-2-2v-.378A72.233,72.233,0,0,0,155.887,400H230a2,2,0,0,1,2,2Zm-16-76v28a2,2,0,0,1-2,2H159.558a72.21,72.21,0,0,0-3.671-32H214A2,2,0,0,1,216,354Zm-96-96a2,2,0,0,1,2-2h92a2,2,0,0,1,2,2v28a2,2,0,0,1-2,2H122a2,2,0,0,1-2-2Zm16,48a2,2,0,0,1,2-2h92a2,2,0,0,1,2,2v28a2,2,0,0,1-2,2H147.84A72.6,72.6,0,0,0,136,322.378ZM32,376a56,56,0,1,1,56,56A56.064,56.064,0,0,1,32,376Zm448,88H32V448H480Z"/><rect x="368" y="352" width="16" height="24"/><path d="M256,96a56.064,56.064,0,0,0-56,56v8H184v16H328V160H312v-8A56.064,56.064,0,0,0,256,96Zm-40,56a40.068,40.068,0,0,1,32-39.2V160H216Zm48,8V112.8A40.068,40.068,0,0,1,296,152v8Z"/><path d="M96,336H80v8.111A18.025,18.025,0,0,0,64,362v4a18.021,18.021,0,0,0,18,18H94a2,2,0,0,1,2,2v4a2,2,0,0,1-2,2H64v16H80v8H96v-8.111A18.025,18.025,0,0,0,112,390v-4a18.021,18.021,0,0,0-18-18H82a2,2,0,0,1-2-2v-4a2,2,0,0,1,2-2h30V344H96Z"/></g></svg>
