<svg id="Layer_1" enable-background="new 0 0 512 512" viewBox="0 0 512 512" xmlns="http://www.w3.org/2000/svg"><path d="m259.37 455.66c-4.39.03-7.99-3.51-8.05-7.91-.03-4.39 3.51-7.99 7.91-8.02l107.26-1.02c4.42-.03 8.02 3.52 8.05 7.91s-3.51 7.99-7.91 8.02zm.03 24.54c-4.39.03-8.02-3.49-8.08-7.88-.03-4.42 3.49-8.02 7.88-8.08l80.25-.99c4.39-.06 8.02 3.46 8.08 7.88.03 4.39-3.49 7.99-7.88 8.05zm-73.05-47.39h44.99c4.42 0 7.99 3.57 7.99 7.99v37.3c0 4.42-3.57 7.99-7.99 7.99h-44.99c-4.42 0-8.02-3.57-8.02-7.99v-37.3c0-4.42 3.6-7.99 8.02-7.99zm36.96 15.99h-28.97v21.29h28.97zm225.78-171.78c10.29 0 15.45-12.47 8.19-19.73-2.92-2.92-7.23-4.11-11.31-2.98-1.08 2.86-3.71 4.88-6.77 5.16-4.65 7.63.85 17.55 9.89 17.55zm19.5 7.93c-17.35 17.32-47.08 4.99-47.08-19.5 0-6.32 2.13-12.13 5.7-16.78l-12.16-18.99h-17.89c-10.46 17.06-29 30.53-61.34 48.13v18.43l12.76 8.5c17.57-16.41 46.4-3.91 46.4 20.15 0 24.46-29.74 36.82-47.08 19.47-6.63-6.63-9.55-16.36-7.34-25.8l-16.61-11.08c-2.47-1.36-4.14-4-4.14-7v-14.2c-4.42 2.32-9.1 4.71-13.97 7.17-2.35 1.19-5.02 1.11-7.2 0-3.69-1.87-7.2-3.69-10.63-5.44-25.09 59.47-91.53 89.55-152.48 69.42l-8.28 14.29c3.86 6.29 3.51 14.71-.51 21.2l-40.31 69.85-.26.43c-3.06 4.48-6.04 7.28-10.83 9.04-5.02 1.81-10.52 1.5-15.17-1.36l-29-16.75h-.03c-9.35-5.39-10.94-17.94-5.39-26.96l40.31-69.82v-.03c3.66-6.35 10.35-10.57 17.38-10.6l8.39-14.51c-43.6-38.86-53.97-103.12-24.69-153.89 25.82-44.7 76.82-68.83 127.9-60.01.14-6.8.28-13.97.4-21.49l-22.08-22.9c-17.89 6.52-37.02-6.72-37.02-25.91 0-24.49 29.74-36.82 47.08-19.5 9.58 9.58 10.8 24.77 2.78 35.72l16.3 16.92c35.94-5.64 69.48-22.88 93.83-49.61 3.15-3.49 8.62-3.51 11.85.06 24.18 26.48 57.2 43.6 92.81 49.41l16.16-16.78c-13.21-18.08-.28-43.8 22.28-43.8 24.49 0 36.82 29.74 19.5 47.08-7.51 7.51-18.79 10.12-28.94 6.41l-20.98 21.74.96 51.62h6.12l20.55-20.55c-9.75-18.23 3.43-40.59 24.32-40.59 24.46 0 36.82 29.76 19.5 47.08-8.56 8.56-21.77 10.57-32.51 4.82l-22.88 22.88c-1.45 1.47-3.46 2.38-5.7 2.38h-9.33c-.17 21-1.47 37.02-5.67 50.37h15c3.03 0 5.64 1.67 7.03 4.14l13.78 21.54c17.8-6.04 36.48 7.17 36.48 26.11.01 7.62-3.08 14.51-8.07 19.49zm-209.22 105.62c-4.39.03-7.99-3.51-8.05-7.91-.03-4.39 3.51-7.99 7.91-8.02l107.26-1.02c4.42-.03 8.02 3.52 8.05 7.91s-3.51 7.99-7.91 8.02zm.03 24.55c-4.39.03-8.02-3.49-8.08-7.88-.03-4.39 3.49-8.02 7.88-8.08l80.25-.99c4.39-.06 8.02 3.49 8.08 7.88.03 4.39-3.49 7.99-7.88 8.05zm-73.05-47.39h44.99c4.42 0 7.99 3.57 7.99 7.99v37.3c0 4.42-3.57 7.99-7.99 7.99h-44.99c-4.42 0-8.02-3.57-8.02-7.99v-37.3c0-4.42 3.6-7.99 8.02-7.99zm36.96 15.98h-28.97v21.32h28.97zm152.28-67.01c-7.29-7.26-19.76-2.1-19.76 8.19 0 10.26 12.47 15.45 19.76 8.16 4.51-4.5 4.51-11.84 0-16.35zm-211.66-280.26c-10.29 0-15.45 12.47-8.19 19.76 7.29 7.26 19.76 2.1 19.76-8.19-.01-6.41-5.2-11.57-11.57-11.57zm283.69 3.37c-7.29-7.26-19.76-2.1-19.76 8.19s12.47 15.45 19.76 8.19c4.5-4.53 4.5-11.84 0-16.38zm21.54 65.71c-7.29-7.26-19.76-2.1-19.76 8.19 0 3.29 1.28 6.01 3.37 8.19 6.83 7.11 19.76 2.38 19.76-8.19 0-3.2-1.3-6.09-3.37-8.19zm-166.93 4.11c17.4 0 31.29 14.51 31.29 31.95 0 11.88-4.48 16.81-8.22 20.95-.88.96-1.64 1.79-1.64 2.04v32.63c0 8.93-7.23 16.38-16.16 16.38h-8.36c-8.93 0-16.16-7.46-16.16-16.38v-32.51c-.65.71-.65 1.11-.85.91-4.65-4.22-11.17-10.18-11.17-24.01 0-17.45 13.86-31.96 31.27-31.96zm10.74 20.58c-9.52-9.78-26.02-2.89-26.02 11.37 0 13.01 12.02 12.08 12.02 22.99v32.63l.17.4 8.42-.03c.06-.09.11-.2.11-.37v-32.63c0-12.47 9.84-11.17 9.84-22.99 0-4.48-1.73-8.48-4.54-11.37zm-29.99 34.47c0-1.36-.14-.34-.43.45zm15.65 92.32c-76.45-38.69-76.31-46.4-74.66-123.59.17-7.17.34-14.97.43-23.24.06-4 3.03-7.29 6.89-7.82 24.58-3.6 48.44-16.13 65.06-34.38 3.15-3.49 8.62-3.52 11.85.06 16.92 18.54 40.2 30.47 65.14 34.36 3.91.6 6.69 3.94 6.75 7.8.11 8.28.28 16.07.43 23.24 1.64 77.19 1.81 84.9-74.66 123.59-2.38 1.18-5.05 1.09-7.23-.02zm-58.71-123.27c-1.45 66.84-1.59 74.61 62.31 107.21 63.92-32.6 63.75-40.37 62.33-107.21-.11-5.22-.23-10.8-.34-16.81-23.3-4.85-44.9-15.87-61.99-32.17-17.09 16.3-38.69 27.33-61.99 32.17-.09 6.01-.2 11.59-.32 16.81zm33.88 146.86c-5.73-3.06-11.06-5.98-15.99-8.82-19.59 51.53-80.82 73.42-128.38 45.75h-.03c-42.92-24.77-57.43-79.91-32.71-122.17v-.03c19.67-34.1 59.36-51.31 97.74-42.41.06-5.78.14-11.93.28-18.48-45.01-8.79-90.82 12.13-113.73 51.82-26.65 46.15-15.45 104.85 26.05 137.91 3.03 2.41 3.94 6.75 1.96 10.2l-10.6 18.37 16.07 9.27 10.32-17.83c1.79-3.71 6.18-5.47 10.09-3.97 54.8 21.49 116.68-4.96 138.93-59.61zm-29.94-17.24c-39.94-25.51-48.42-46.15-49.35-93.88-32.34-9.41-67.12 4.59-84.02 33.87l-.03-.03c-20.24 35.12-8.19 80.11 26.93 100.4v.03c40.23 23.2 91.7 3.69 106.47-40.39zm-32.96-141.22c-2.07 96.86-2.27 107.6 91.33 155.25l22.03-11.51c61.4-33.14 69.85-50.06 69.82-110.18 0-18.2-.71-39.91-1.02-59.92-34.33-6.63-66.16-22.9-90.82-47.34-24.66 24.43-56.49 40.71-90.82 47.34-.15 9.5-.35 18.23-.52 26.36zm-37.68 50.37c19.45 0 29.25 23.61 15.51 37.39-13.78 13.75-37.39 3.94-37.39-15.51 0-12.07 9.81-21.88 21.88-21.88zm4.2 17.72c-3.71-3.71-10.09-1.08-10.09 4.17s6.38 7.88 10.09 4.2c2.3-2.33 2.3-6.07 0-8.37zm-16.64 27.16h24.92c4.42 0 7.99 3.57 7.99 7.99v74.75c0 4.42-3.57 8.02-7.99 8.02h-24.92c-4.42 0-7.99-3.6-7.99-8.02v-74.75c0-4.42 3.57-7.99 7.99-7.99zm16.92 15.98h-8.93v58.76h8.93zm-65 146.04-28.77-16.64c-.88-.51-3 .77-4.05 2.58v-.03l-40.54 70.27c-1.02 1.73-1.05 4.25-.17 4.73l-.03.03 29.45 16.98c.85.48 2.98-.79 3.83-2.24.11-.25.28-.51.45-.77l40.28-69.79c1.05-1.81.96-4.17.37-4.65-.28-.13-.53-.3-.82-.47z"/></svg>