<svg id="Layer_1-2" viewBox="0 0 64 64" xmlns="http://www.w3.org/2000/svg"><g id="Cargo"><path d="m5 12c-.55224609 0-1 .44726562-1 1v44c0 .55273438.44775391 1 1 1h18c.55224609 0 1-.44726562 1-1s-.44775391-1-1-1h-17v-42h3c0 1.65429688 1.34570312 3 3 3h20c1.65429688 0 3-1.34570312 3-3h3v19c0 .55273438.44775391 1 1 1s1-.44726562 1-1v-20c0-.55273438-.44775391-1-1-1h-4v-2h4c1.65429688 0 3 1.34570312 3 3v20c0 .55273438.44775391 1 1 1s1-.44726562 1-1v-20c0-2.75683594-2.24316406-5-5-5h-4c0-1.65429688-1.34570312-3-3-3h-6v-1c0-2.20605469-1.79443359-4-4-4s-4 1.79394531-4 4v1h-6c-1.65429688 0-3 1.34570312-3 3h-4c-2.75683594 0-5 2.24316406-5 5v44c0 2.75683594 2.24316406 5 5 5h18c.55224609 0 1-.44726562 1-1s-.44775391-1-1-1h-18c-1.65429688 0-3-1.34570312-3-3v-44c0-1.65429688 1.34570312-3 3-3h4v2zm15-8c0-1.10253906.89697266-2 2-2s2 .89746094 2 2v1h-4zm-9 4c0-.55175781.44873047-1 1-1h20c.55126953 0 1 .44824219 1 1v6c0 .55175781-.44873047 1-1 1h-20c-.55126953 0-1-.44824219-1-1z"/><path d="m63.94873047 50.68359375-3-9c-.13623519-.40820312-.51806641-.68359375-.94873047-.68359375h-9v-4c0-.55273438-.44775391-1-1-1h-22c-.55224609 0-1 .44726562-1 1v19c-.55224609 0-1 .44726562-1 1v4c0 .55273438.44775391 1 1 1h4.02557373c.91363525 1.20697021 2.34753418 2 3.97442627 2s3.06079102-.79302979 3.97442627-2h12.05114746c.91363525 1.20697021 2.34753418 2 3.97442627 2s3.06079102-.79302979 3.97442627-2h4.02557373c.55224609 0 1-.44726562 1-1v-10c0-.10742188-.01708984-.21386719-.05126953-.31640625zm-2.33612061-.68359375h-5.61260986v-3h4.61260986zm-2.33331299-7 .66668701 2h-4.94598389c-.55224609 0-1 .44726562-1 1v5c0 .55273438.44775391 1 1 1h7v4h-3.02557373c-.91363525-1.20697021-2.34753418-2-3.97442627-2s-3.06079102.79302979-3.97442627 2h-.02557373v-13zm-18.27929688-5v4h-4v-4zm-12 0h6v5c0 .55273438.44775391 1 1 1h6c.55224609 0 1-.44726562 1-1v-5h6v18h-10.02557373c-.91363525-1.20697021-2.34753418-2-3.97442627-2s-3.06079102.79302979-3.97442627 2h-2.02557373zm-1 22v-2h2.10107422c-.06591797.32324219-.10107422.65759277-.10107422 1s.03515625.67675781.10107422 1zm7 2c-1.65429688 0-3-1.34570312-3-3s1.34570312-3 3-3 3 1.34570312 3 3-1.34570312 3-3 3zm4.89892578-2c.06591797-.32324219.10107422-.65759277.10107422-1s-.03515625-.67675781-.10107422-1h10.20214844c-.06591797.32324219-.10107422.65759277-.10107422 1s.03515625.67675781.10107422 1zm15.10107422 2c-1.65429688 0-3-1.34570312-3-3s1.34570312-3 3-3 3 1.34570312 3 3-1.34570312 3-3 3zm7-2h-2.10107422c.06591797-.32324219.10107422-.65759277.10107422-1s-.03515625-.67675781-.10107422-1h2.10107422z"/><path d="m23 31v-8c0-1.65429688-1.34570312-3-3-3h-8c-1.65429688 0-3 1.34570312-3 3v8c0 1.65429688 1.34570312 3 3 3h8c1.65429688 0 3-1.34570312 3-3zm-12 0v-8c0-.55175781.44873047-1 1-1h3v2c0 .55273438.44775391 1 1 1s1-.44726562 1-1v-2h3c.55126953 0 1 .44824219 1 1v8c0 .55175781-.44873047 1-1 1h-8c-.55126953 0-1-.44824219-1-1z"/><path d="m15 28h-1c-.55224609 0-1 .44726562-1 1s.44775391 1 1 1h1c.55224609 0 1-.44726562 1-1s-.44775391-1-1-1z"/><path d="m34 20h-7c-.55224609 0-1 .44726562-1 1s.44775391 1 1 1h7c.55224609 0 1-.44726562 1-1s-.44775391-1-1-1z"/><path d="m34 24h-7c-.55224609 0-1 .44726562-1 1s.44775391 1 1 1h7c.55224609 0 1-.44726562 1-1s-.44775391-1-1-1z"/><path d="m34 28h-7c-.55224609 0-1 .44726562-1 1s.44775391 1 1 1h7c.55224609 0 1-.44726562 1-1s-.44775391-1-1-1z"/><path d="m15.70703125 37.29296875c-.390625-.390625-1.0234375-.390625-1.4140625 0l-2.29296875 2.29296875-1.29296875-1.29296875c-.390625-.390625-1.0234375-.390625-1.4140625 0s-.390625 1.0234375 0 1.4140625l2 2c.1953125.1953125.45117188.29296875.70703125.29296875s.51171875-.09765625.70703125-.29296875l3-3c.390625-.390625.390625-1.0234375 0-1.4140625z"/><path d="m23 39h-4c-.55224609 0-1 .44726562-1 1s.44775391 1 1 1h4c.55224609 0 1-.44726562 1-1s-.44775391-1-1-1z"/><path d="m14.29296875 45.29296875-2.29296875 2.29296875-1.29296875-1.29296875c-.390625-.390625-1.0234375-.390625-1.4140625 0s-.390625 1.0234375 0 1.4140625l2 2c.1953125.1953125.45117188.29296875.70703125.29296875s.51171875-.09765625.70703125-.29296875l3-3c.390625-.390625.390625-1.0234375 0-1.4140625s-1.0234375-.390625-1.4140625 0z"/><path d="m23 47h-4c-.55224609 0-1 .44726562-1 1s.44775391 1 1 1h4c.55224609 0 1-.44726562 1-1s-.44775391-1-1-1z"/></g></svg>