<svg id="Layer_1" viewBox="0 0 512 512" xmlns="http://www.w3.org/2000/svg" data-name="Layer 1"><path d="m311.465 111.847 7.335 1.445 5.066 12.229-4.164 6.209c-2.866 4.272-2.307 10.014 1.332 13.651l14.432 14.432c3.636 3.637 9.376 4.198 13.649 1.333l6.212-4.165 12.228 5.065 1.446 7.34c.997 5.045 5.453 8.707 10.595 8.707h3.204v28.721l-33.107 20.827c-2.565 1.613-3.801 4.695-3.061 7.635l6.552 26.015c.944 3.748 4.747 6.023 8.498 5.078 3.748-.944 6.022-4.749 5.078-8.498l-5.311-21.086 21.351-13.431v8.127c0 3.866 3.134 7 7 7s7-3.134 7-7v-8.127l21.352 13.432-5.311 21.086c-.944 3.749 1.33 7.554 5.078 8.498.574.145 1.149.214 1.715.214 3.132 0 5.983-2.117 6.783-5.292l6.552-26.015c.74-2.939-.495-6.021-3.061-7.635l-33.108-20.827v-28.721h3.205c5.142 0 9.598-3.662 10.596-8.711l1.445-7.336 12.228-5.065 6.213 4.166c4.272 2.862 10.012 2.305 13.648-1.334l14.432-14.432c3.639-3.638 4.198-9.379 1.333-13.649l-4.165-6.211 5.066-12.229 7.34-1.446c5.045-.998 8.706-5.453 8.706-10.595v-20.41c0-5.144-3.664-9.6-8.71-10.594l-7.336-1.447-5.066-12.228 4.165-6.211c2.865-4.272 2.305-10.013-1.333-13.65l-14.433-14.433c-3.637-3.635-9.376-4.197-13.648-1.332l-6.212 4.165-12.228-5.065-1.446-7.341c-.998-5.044-5.453-8.706-10.595-8.706h-20.409c-5.142 0-9.597 3.661-10.596 8.71l-1.445 7.336-12.228 5.065-6.213-4.166c-4.273-2.863-10.013-2.302-13.648 1.333l-14.432 14.432c-3.639 3.639-4.199 9.38-1.333 13.65l4.165 6.211-5.066 12.228-7.335 1.447c-5.047.995-8.711 5.45-8.711 10.594v20.41c0 5.142 3.662 9.598 8.711 10.596zm5.289-28.374 8.433-1.663c2.297-.453 4.216-2.025 5.112-4.188l7.936-19.155c.896-2.164.651-4.632-.653-6.578l-4.787-7.14 10.71-10.71 7.14 4.788c1.944 1.305 4.414 1.549 6.577.653l19.155-7.936c2.164-.896 3.736-2.815 4.189-5.113l1.661-8.432h15.147l1.661 8.432c.453 2.298 2.025 4.217 4.189 5.113l19.155 7.936c2.161.896 4.632.651 6.577-.653l7.14-4.788 10.71 10.71-4.787 7.14c-1.305 1.945-1.55 4.414-.653 6.578l7.936 19.155c.896 2.164 2.815 3.735 5.112 4.188l8.433 1.663v15.147l-8.432 1.661c-2.298.453-4.217 2.025-5.113 4.189l-7.936 19.155c-.896 2.163-.651 4.632.653 6.577l4.787 7.14-10.71 10.71-7.14-4.788c-1.944-1.306-4.415-1.55-6.577-.653l-19.155 7.936c-2.164.896-3.736 2.815-4.189 5.113l-1.661 8.433h-15.147l-1.661-8.433c-.453-2.298-2.025-4.217-4.189-5.113l-19.155-7.936c-2.163-.897-4.634-.652-6.577.653l-7.14 4.788-10.71-10.71 4.787-7.14c1.305-1.945 1.55-4.414.653-6.577l-7.936-19.155c-.896-2.164-2.815-3.736-5.113-4.189l-8.432-1.661zm73.046 55.623c26.495 0 48.051-21.555 48.051-48.05s-21.556-48.05-48.051-48.05-48.05 21.555-48.05 48.05 21.555 48.05 48.05 48.05zm0-82.1c18.775 0 34.051 15.274 34.051 34.05s-15.275 34.05-34.051 34.05-34.05-15.274-34.05-34.05 15.274-34.05 34.05-34.05zm53.638 321.88h-.179v-78.691c0-7.844-6.382-14.226-14.226-14.226h-78.466c-7.844 0-14.226 6.382-14.226 14.226v78.691h-16.969v-13.052c0-.21-.01-.419-.028-.628-2.889-32.065-17.584-61.767-41.38-83.631-15.552-14.291-34.129-24.406-54.155-29.745 19.093-11.42 31.908-32.295 31.908-56.113 0-1.307-.05-2.615-.127-3.92 1.325-.477 2.65-.955 4.014-1.459 2.746-1.017 4.57-3.636 4.57-6.564v-8.316c0-2.367-1.178-4.455-2.976-5.722v-.756c0-31.11-20.859-58.778-50.306-67.764-.348-2.912-2.466-5.331-5.364-5.995-9.937-2.273-20.378-2.273-30.311 0-2.899.664-5.017 3.083-5.365 5.995-29.447 8.986-50.306 36.654-50.306 67.764v.756c-1.798 1.267-2.976 3.355-2.976 5.722v8.316c0 2.929 1.823 5.548 4.57 6.564 1.364.505 2.688.982 4.013 1.459-.078 1.306-.128 2.615-.128 3.921 0 23.818 12.816 44.693 31.909 56.113-20.026 5.339-38.602 15.454-54.155 29.745-23.796 21.864-38.492 51.565-41.381 83.631-.019.209-.028.418-.028.628v13.462c-32.227 3.588-57.373 30.983-57.373 64.151 0 35.6 28.963 64.562 64.562 64.562h374.875c35.6 0 64.562-28.963 64.562-64.562s-28.963-64.562-64.562-64.562zm-62.584-78.917h17.894v16.023h-17.894zm-30.512.226c0-.114.111-.226.226-.226h16.286v23.023c0 3.866 3.134 7 7 7h31.894c3.866 0 7-3.134 7-7v-23.023h16.286c.114 0 .226.111.226.226v78.691h-78.917v-78.691zm-44.969 65.959v12.732h-28.155v-78.424c15.581 17.715 25.81 40.379 28.155 65.692zm-187.844-79.117c7.64-6.177 16.086-11.387 25.162-15.456v34.903c0 6.933 5.64 12.572 12.572 12.572h70.219c6.933 0 12.572-5.64 12.572-12.572v-34.903c9.076 4.07 17.523 9.28 25.163 15.457v91.849h-145.688zm39.162-20.664c10.657-3.198 21.965-4.916 33.682-4.916s23.024 1.718 33.682 4.916v38.683h-67.363v-38.683zm12.556-150.11-1.163 31.33c-.144 3.863 2.872 7.111 6.735 7.255 3.896.138 7.111-2.872 7.255-6.735l1.491-40.172c4.516-.576 9.099-.576 13.614 0l1.491 40.172c.141 3.774 3.244 6.74 6.99 6.74.088 0 .176-.002.265-.005 3.863-.144 6.879-3.392 6.735-7.255l-1.163-31.33c20.977 8.493 35.472 29.126 35.688 52.195h-113.628c.217-23.069 14.711-43.702 35.688-52.195zm70.482 66.195c-19.717 6.423-34.696 9.192-49.355 9.306-14.66-.113-29.64-2.883-49.356-9.306h98.712zm-100.681 14.062c20.037 6.359 35.702 9.13 51.275 9.244h.102c15.572-.114 31.236-2.885 51.273-9.244-.432 27.942-23.281 50.542-51.323 50.542s-50.894-22.601-51.325-50.543zm-35.519 103.943v78.424h-28.156v-12.732c2.346-25.313 12.575-47.977 28.156-65.692zm339.908 193.549h-374.875c-27.88 0-50.562-22.682-50.562-50.562s22.683-50.562 50.562-50.562h374.875c27.88 0 50.562 22.682 50.562 50.562s-22.683 50.562-50.562 50.562zm0-86.688c-19.92 0-36.126 16.206-36.126 36.126s16.206 36.127 36.126 36.127 36.127-16.207 36.127-36.127-16.207-36.126-36.127-36.126zm0 58.253c-12.2 0-22.126-9.926-22.126-22.127s9.926-22.126 22.126-22.126 22.127 9.926 22.127 22.126-9.926 22.127-22.127 22.127zm-124.958-58.253c-19.92 0-36.126 16.206-36.126 36.126s16.206 36.127 36.126 36.127 36.126-16.207 36.126-36.127-16.206-36.126-36.126-36.126zm0 58.253c-12.2 0-22.126-9.926-22.126-22.127s9.926-22.126 22.126-22.126 22.126 9.926 22.126 22.126-9.926 22.127-22.126 22.127zm59.129 4.632c0 3.866-3.134 7-7 7h-10.29c-3.866 0-7-3.134-7-7s3.134-7 7-7h10.29c3.866 0 7 3.134 7 7zm0-53.517c0 3.866-3.134 7-7 7h-10.29c-3.866 0-7-3.134-7-7s3.134-7 7-7h10.29c3.866 0 7 3.134 7 7zm30.991 53.517c0 3.866-3.134 7-7 7h-10.29c-3.866 0-7-3.134-7-7s3.134-7 7-7h10.29c3.866 0 7 3.134 7 7zm-24.29-53.517c0-3.866 3.134-7 7-7h10.29c3.866 0 7 3.134 7 7s-3.134 7-7 7h-10.29c-3.866 0-7-3.134-7-7zm-131.659 53.517c0 3.866-3.134 7-7 7h-10.291c-3.866 0-7-3.134-7-7s3.134-7 7-7h10.291c3.866 0 7 3.134 7 7zm6.7-53.517c0-3.866 3.134-7 7-7h10.291c3.866 0 7 3.134 7 7s-3.134 7-7 7h-10.291c-3.866 0-7-3.134-7-7zm-6.7 0c0 3.866-3.134 7-7 7h-10.291c-3.866 0-7-3.134-7-7s3.134-7 7-7h10.291c3.866 0 7 3.134 7 7zm30.991 53.517c0 3.866-3.134 7-7 7h-10.291c-3.866 0-7-3.134-7-7s3.134-7 7-7h10.291c3.866 0 7 3.134 7 7zm-90.121-62.885c-19.92 0-36.126 16.206-36.126 36.126s16.206 36.127 36.126 36.127 36.127-16.207 36.127-36.127-16.207-36.126-36.127-36.126zm0 58.253c-12.2 0-22.126-9.926-22.126-22.127s9.926-22.126 22.126-22.126 22.127 9.926 22.127 22.126-9.926 22.127-22.127 22.127zm-124.958-58.253c-19.92 0-36.126 16.206-36.126 36.126s16.206 36.127 36.126 36.127 36.126-16.207 36.126-36.127-16.206-36.126-36.126-36.126zm0 58.253c-12.2 0-22.126-9.926-22.126-22.127s9.926-22.126 22.126-22.126 22.126 9.926 22.126 22.126-9.926 22.127-22.126 22.127zm59.129-48.885c0 3.866-3.134 7-7 7h-10.29c-3.866 0-7-3.134-7-7s3.134-7 7-7h10.29c3.866 0 7 3.134 7 7zm30.991 53.517c0 3.866-3.134 7-7 7h-10.291c-3.866 0-7-3.134-7-7s3.134-7 7-7h10.291c3.866 0 7 3.134 7 7zm-24.291-53.517c0-3.866 3.134-7 7-7h10.291c3.866 0 7 3.134 7 7s-3.134 7-7 7h-10.291c-3.866 0-7-3.134-7-7zm-6.7 53.517c0 3.866-3.134 7-7 7h-10.29c-3.866 0-7-3.134-7-7s3.134-7 7-7h10.29c3.866 0 7 3.134 7 7z"/></svg>