<svg height="501pt" viewBox="0 0 501 501.29239" width="501pt" xmlns="http://www.w3.org/2000/svg"><path d="m290.21875 192.636719c3.3125 0 6-2.6875 6-6s-2.6875-6-6-6h-78.847656c-3.3125 0-6 2.6875-6 6s2.6875 6 6 6h22.5625c13.285156 0 24.417968 9 27.171875 21h-49.734375c-3.3125 0-6 2.6875-6 6s2.6875 6 6 6h49.730468c-2.625 12.890625-14.011718 22.113281-27.167968 22h-22.5625c-2.46875.042969-4.671875 1.570312-5.574219 3.871093-.902344 2.300782-.328125 4.917969 1.457031 6.628907l56.386719 53.308593c1.152344 1.097657 2.695313 1.691407 4.289063 1.648438 1.589843-.039062 3.097656-.714844 4.191406-1.871094 2.277344-2.441406 2.171875-6.257812-.238282-8.570312l-45.425781-43.015625h7.476563c19.683594-.148438 36.359375-14.546875 39.375-34h16.910156c3.3125 0 6-2.6875 6-6s-2.6875-6-6-6h-16.910156c-1.277344-8-5.214844-16-10.917969-21zm0 0"/><path d="m467.414062 216.613281c-16.085937.023438-29.964843 11.289063-33.296874 27.023438h-13.140626c-1.699218-40.527344-17.855468-79.109375-45.546874-108.75l9.339843-9.339844c14.539063 9.929687 34.261719 7.117187 45.441407-6.488281 11.179687-13.605469 10.125-33.496094-2.4375-45.839844s-32.46875-13.050781-45.875-1.632812c-13.40625 11.417968-15.875 31.183593-5.691407 45.550781l-9.257812 9.257812c-30.476563-28.550781-70.40625-44.863281-112.152344-45.816406v-12.777344c17.492187-2.074219 30.511719-17.164062 29.996094-34.777343-.515625-17.609376-14.390625-31.914063-31.976563-32.9648442-17.589844-1.0468748-33.066406 11.5039062-35.671875 28.9296872s8.527344 33.953125 25.652344 38.09375v13.640625c-40.144531 1.863282-78.328125 17.910156-107.746094 45.289063l-9.34375-9.339844c9.964844-14.546875 7.167969-34.289063-6.4375-45.5-13.605469-11.207031-33.519531-10.171875-45.886719 2.386719-12.371093 12.5625-13.101562 32.488281-1.683593 45.921875 11.414062 13.433593 31.199219 15.921875 45.589843 5.738281l9.253907 9.257812c-28.15625 29.941407-44.488281 69.085938-45.96875 110.160157h-12.914063c-3.109375-17.347657-18.949218-29.449219-36.503906-27.890625-17.554688 1.5625-31.011719 16.269531-31.011719 33.890625 0 17.625 13.457031 32.328125 31.011719 33.890625 17.554688 1.558594 33.394531-10.542969 36.503906-27.890625h12.898438c1.375 41.472656 17.894531 81.003906 46.4375 111.121093l-8.894532 8.894532c-14.054687-10.578125-33.859374-8.671875-45.644531 4.390625-11.78125 13.066406-11.636719 32.960937.328125 45.855469 11.96875 12.894531 31.796875 14.519531 45.703125 3.742187 13.902344-10.773437 17.28125-30.382813 7.78125-45.1875l9.265625-9.269531c29.613282 27.34375 67.988282 43.25 108.261719 44.878906v12.902344c-17.25 3.621094-28.878906 19.816406-26.796875 37.320312 2.082031 17.5 17.183594 30.515625 34.804688 29.992188 17.617187-.523438 31.917968-14.414063 32.957031-32.007813 1.035156-17.597656-11.53125-33.070312-28.964844-35.664062v-12.46875c41.855469-1.203125 81.792969-17.835938 112.128906-46.699219l8.878907 8.878906c-10.621094 14.070313-8.742188 33.921875 4.332031 45.75s33.015625 11.714844 45.953125-.261718c12.9375-11.976563 14.589844-31.847657 3.808594-45.796876-10.785157-13.949218-30.433594-17.355468-45.28125-7.847656l-9.277344-9.28125c27.722656-30.144531 43.613281-69.300781 44.730468-110.242187h12.691407c2.664062 17.945312 18.941406 30.640625 36.992187 28.859375 18.054688-1.78125 31.535156-17.414063 30.640625-35.53125-.890625-18.117188-15.839843-32.351563-33.980469-32.351563zm-433.238281 56.046875c-12.164062 0-22.023437-9.859375-22.023437-22.023437.003906-12.164063 9.863281-22.023438 22.023437-22.023438 12.164063 0 22.023438 9.859375 22.023438 22.023438-.011719 12.160156-9.867188 22.011719-22.023438 22.023437zm354.21875-190.769531c7.429688-7.425781 19.070313-8.574219 27.808594-2.738281 8.734375 5.839844 12.128906 17.035156 8.109375 26.738281-4.023438 9.707031-14.339844 15.222656-24.644531 13.171875-10.300781-2.050781-17.722657-11.09375-17.722657-21.597656-.007812-5.84375 2.3125-11.449219 6.449219-15.574219zm-159.625-47.871094c0-12.164062 9.863281-22.023437 22.027344-22.023437 12.160156 0 22.023437 9.859375 22.023437 22.023437 0 12.164063-9.863281 22.023438-22.023437 22.023438-12.160156-.015625-22.011719-9.867188-22.027344-22.023438zm-146.71875 79.019531c-8.601562-8.601562-8.601562-22.546874-.003906-31.148437 8.601563-8.601563 22.546875-8.601563 31.148437 0 8.601563 8.601563 8.601563 22.546875 0 31.148437-8.605468 8.585938-22.539062 8.585938-31.144531 0zm31.144531 306.34375c-7.429687 7.429688-19.070312 8.574219-27.808593 2.738282-8.734375-5.835938-12.128907-17.03125-8.109375-26.738282 4.023437-9.707031 14.339844-15.222656 24.644531-13.171874 10.300781 2.050781 17.722656 11.09375 17.722656 21.597656 0 5.84375-2.320312 11.441406-6.449219 15.574218zm159.625 47.875c0 12.164063-9.859374 22.027344-22.023437 22.027344-12.164063.003906-22.023437-9.859375-22.027344-22.023437 0-12.164063 9.859375-22.023438 22.027344-22.023438 12.152344.011719 22.003906 9.863281 22.023437 22.019531zm131.148438-85.460937c10.496094.007813 19.527344 7.429687 21.570312 17.726563 2.042969 10.300781-3.472656 20.605468-13.175781 24.617187s-20.886719.613281-26.714843-8.117187c-5.828126-8.730469-4.679688-20.363282 2.746093-27.785157 4.128907-4.132812 9.730469-6.453125 15.574219-6.441406zm-153.171875 27.421875c-87.3125 0-158.347656-71.035156-158.347656-158.34375 0-87.3125 71.035156-158.347656 158.347656-158.347656 87.308594 0 158.34375 71.035156 158.34375 158.347656 0 87.308594-71.035156 158.34375-158.34375 158.34375zm216.617187-136.558594c-12.164062 0-22.023437-9.859375-22.023437-22.023437 0-12.164063 9.863281-22.023438 22.023437-22.023438 12.164063 0 22.023438 9.859375 22.023438 22.023438-.011719 12.160156-9.867188 22.011719-22.023438 22.023437zm0 0"/><path d="m250.796875 127.253906c-68.273437 0-123.621094 55.347656-123.621094 123.621094s55.347657 123.617188 123.621094 123.617188 123.617187-55.34375 123.617187-123.617188c-.078124-68.242188-55.378906-123.542969-123.617187-123.621094zm0 235.238282c-61.648437 0-111.621094-49.972657-111.621094-111.617188 0-61.648438 49.972657-111.621094 111.621094-111.621094 61.644531 0 111.617187 49.972656 111.617187 111.621094-.070312 61.617188-50.003906 111.546875-111.617187 111.617188zm0 0"/></svg>