<svg clip-rule="evenodd" fill-rule="evenodd" stroke-linejoin="round" stroke-miterlimit="2" viewBox="0 0 128 128" xmlns="http://www.w3.org/2000/svg"><g id="Icon"><path d="m61.011 106h-53.011c-1.105 0-2-.895-2-2v-96c0-1.105.895-2 2-2h72c1.105 0 2 .895 2 2v25h19c1.105 0 2 .895 2 2v24.822c-1.3-.445-2.635-.813-4-1.099v-21.723h-60v32h27.969c-1.15 1.251-2.208 2.588-3.162 4h-26.807c-1.105 0-2-.895-2-2v-36c0-1.105.895-2 2-2h41v-17h-15.172l-3.414 3.414c-.375.375-.884.586-1.414.586h-28c-.53 0-1.039-.211-1.414-.586l-3.414-3.414h-15.172v68h48.948c-.315 1.306-.555 2.641-.715 4h-48.233v14h49.497c.422 1.372.929 2.708 1.514 4zm16.989-94v-2h-68v2h16c.53 0 1.039.211 1.414.586l3.414 3.414h26.344l3.414-3.414c.375-.375.884-.586 1.414-.586zm-34-1c1.104 0 2 .896 2 2s-.896 2-2 2-2-.896-2-2 .896-2 2-2zm24.966 56h-19.189c-.934 0-1.744-.646-1.951-1.557-.594-2.615-2.654-4.675-5.269-5.269-.911-.207-1.557-1.017-1.557-1.951v-10.446c0-.934.646-1.744 1.557-1.951 2.615-.594 4.675-2.654 5.269-5.269.207-.911 1.017-1.557 1.951-1.557h38.446c.934 0 1.744.646 1.951 1.557.594 2.615 2.654 4.675 5.269 5.269.911.207 1.557 1.017 1.557 1.951v10.446c0 .048-.002.095-.005.142-1.63-.24-3.298-.365-4.995-.365-.455 0-.909.009-1.36.027.727-.516 1.518-.946 2.36-1.275v-7.503c-2.855-1.117-5.132-3.394-6.248-6.249h-35.504c-1.116 2.855-3.393 5.132-6.248 6.248 0 0 0 7.504 0 7.503 2.855 1.117 5.132 3.394 6.248 6.249h23.005c-1.893 1.161-3.663 2.503-5.287 4zm.034-23c4.967 0 9 4.033 9 9s-4.033 9-9 9-9-4.033-9-9 4.033-9 9-9zm0 4c-2.76 0-5 2.24-5 5s2.24 5 5 5 5-2.24 5-5-2.24-5-5-5zm-21 41c2.209 0 4 1.791 4 4v4c0 2.209-1.791 4-4 4h-8c-2.209 0-4-1.791-4-4v-4c0-2.209 1.791-4 4-4zm-8 8h8v-4h-8zm-25 3c-1.104 0-2-.896-2-2s.896-2 2-2h10c1.104 0 2 .896 2 2s-.896 2-2 2zm0-6c-1.104 0-2-.896-2-2s.896-2 2-2h10c1.104 0 2 .896 2 2s-.896 2-2 2zm77-32c16.557 0 30 13.443 30 30s-13.443 30-30 30-30-13.443-30-30 13.443-30 30-30zm0 4c-14.35 0-26 11.65-26 26s11.65 26 26 26 26-11.65 26-26-11.65-26-26-26zm0 7c10.486 0 19 8.514 19 19s-8.514 19-19 19-19-8.514-19-19 8.514-19 19-19zm0 4c-8.279 0-15 6.721-15 15s6.721 15 15 15 15-6.721 15-15-6.721-15-15-15zm-10.28 17.536c-.848-.706-.963-1.968-.256-2.816.706-.848 1.968-.963 2.816-.256l4.475 3.729 9.718-11.485c.713-.843 1.976-.948 2.819-.235s.948 1.976.235 2.819l-11 13c-.71.839-1.963.948-2.807.244z"/></g></svg>