<?xml version="1.0" encoding="UTF-8"?>
<svg xmlns="http://www.w3.org/2000/svg" id="outline" viewBox="0 0 512 512" width="512" height="512"><path d="M488,64H240V80H480V336H208V245.546a37.327,37.327,0,0,0-6.917-21.674A38,38,0,0,0,228.4,163.2,22.133,22.133,0,0,1,224,150V94.69A78.779,78.779,0,0,0,145.31,16H126.69A78.779,78.779,0,0,0,48,94.69V150a22.133,22.133,0,0,1-4.4,13.2,38,38,0,0,0,27.317,60.672A37.327,37.327,0,0,0,64,245.546V336H32V80h8V64H24a8,8,0,0,0-8,8V368.327A31.708,31.708,0,0,0,47.673,400H214.938l-6,48H208a24.027,24.027,0,0,0-24,24v16a8,8,0,0,0,8,8H320a8,8,0,0,0,8-8V472a24.027,24.027,0,0,0-24-24h-.938l-6-48H464.327A31.708,31.708,0,0,0,496,368.327V72A8,8,0,0,0,488,64ZM175.306,336l-2.86-31.462,1.94-8.538H192v40ZM80,280V245.546a21.573,21.573,0,0,1,17.52-21.155l6.282,31.414L97.754,280Zm8-128H70.418A6.425,6.425,0,0,1,64,145.582V126.418A6.425,6.425,0,0,1,70.418,120H88Zm120-6.418A6.425,6.425,0,0,1,201.582,152H184V120h17.582A6.425,6.425,0,0,1,208,126.418ZM176,104a68.8,68.8,0,0,1-48.971-20.284l-1.372-1.373a8,8,0,0,0-10.095-1L96.016,94.374A23.046,23.046,0,0,1,119.023,72h33.954A23.049,23.049,0,0,1,176,95.023Zm-72,4.281,15.085-10.056A84.508,84.508,0,0,0,168,119.632V144H144v16h24v1.366A14.651,14.651,0,0,1,153.366,176H118.634A14.651,14.651,0,0,1,104,161.366Zm70.48,116.11A21.573,21.573,0,0,1,192,245.546V280H174.246L168.2,255.805ZM128,212.687V192h16v20.687l-8,8ZM155.313,224h2.929l-3.155,15.773L147.313,232Zm-30.626,8-7.774,7.773L113.758,224h2.929Zm-9.249,70.227-3.214-14.139,7-28L136,243.313l16.776,16.777,7,28-3.214,14.139a8.028,8.028,0,0,0-.166,2.5L159.24,336H112.76l2.844-31.276A8.028,8.028,0,0,0,115.438,302.227ZM211.2,203.6A22.133,22.133,0,0,1,198,208H160V191.268A30.721,30.721,0,0,0,183.268,168h18.314a22.278,22.278,0,0,0,9.841-2.281A37.76,37.76,0,0,0,215.6,172.8,22.025,22.025,0,0,1,211.2,203.6ZM126.69,32h18.62A62.761,62.761,0,0,1,208,94.69v10.251a22.348,22.348,0,0,0-6.418-.941H192V95.023A39.068,39.068,0,0,0,152.977,56H119.023A39.068,39.068,0,0,0,80,95.023V104H70.418a22.348,22.348,0,0,0-6.418.941V94.69A62.761,62.761,0,0,1,126.69,32ZM56.4,172.8a37.76,37.76,0,0,0,4.177-7.081A22.278,22.278,0,0,0,70.418,168H88.732A30.721,30.721,0,0,0,112,191.268V208H74a22,22,0,0,1-17.6-35.2ZM80,296H97.614l1.94,8.538L96.694,336H80ZM312,472v8H200v-8a8.009,8.009,0,0,1,8-8h96A8.009,8.009,0,0,1,312,472Zm-25.062-24H225.062l6-48h49.876ZM480,368.327A15.691,15.691,0,0,1,464.327,384H47.673A15.691,15.691,0,0,1,32,368.327V352H480Z"/><path d="M464,208a111.914,111.914,0,1,0-68.4,103.2l-6.233-14.736a96.137,96.137,0,1,1,21.45-12.58l9.812,12.639A111.345,111.345,0,0,0,464,208Z"/><path d="M352,128a80,80,0,1,0,80,80A80.091,80.091,0,0,0,352,128ZM300.87,246.444l7.554-7.555A39.26,39.26,0,0,0,320,210.943v-9.972A32.971,32.971,0,0,1,352.971,168h3.716a19.308,19.308,0,0,1,6.781,1.219l-25.125,25.124a8,8,0,0,0,0,11.314l16,16a8,8,0,0,0,11.314,0l25.124-25.125A19.308,19.308,0,0,1,392,203.313v3.716A32.971,32.971,0,0,1,359.029,240h-9.972a39.26,39.26,0,0,0-27.946,11.576l-7.555,7.554A64.551,64.551,0,0,1,300.87,246.444ZM352,272a63.62,63.62,0,0,1-24-4.687l4.424-4.424A23.372,23.372,0,0,1,349.057,256h9.972A48.97,48.97,0,0,0,408,207.029v-3.716a35.082,35.082,0,0,0-10.343-24.97,8,8,0,0,0-11.314,0L360,204.687,355.313,200l26.344-26.343a8,8,0,0,0,0-11.314A35.082,35.082,0,0,0,356.687,152h-3.716A48.97,48.97,0,0,0,304,200.971v9.972a23.372,23.372,0,0,1-6.889,16.633L292.687,232A63.99,63.99,0,1,1,352,272Z"/><rect x="248" y="360" width="16" height="16"/></svg>
