<?xml version="1.0"?>
<svg xmlns="http://www.w3.org/2000/svg" viewBox="0 0 64 64" width="512" height="512"><g id="Select-Recruit-Magnifying_Glass-Business-Chosen" data-name="Select-Recruit-Magnifying Glass-Business-Chosen"><path d="M59.24,36,56,34.38V32.97A4.952,4.952,0,0,0,58,29V26a5,5,0,0,0-5-5,4.947,4.947,0,0,0-2,.43A5.064,5.064,0,0,0,48.24,17L45,15.38V13.97A4.952,4.952,0,0,0,47,10V7A5,5,0,0,0,37,7v3a4.952,4.952,0,0,0,2,3.97v1.41L35.76,17a5.021,5.021,0,0,0-2.54,3.06c-.4-.03-.81-.06-1.22-.06s-.82.03-1.22.06A5.021,5.021,0,0,0,28.24,17L25,15.38V13.97A4.952,4.952,0,0,0,27,10V7A5,5,0,0,0,17,7v3a4.952,4.952,0,0,0,2,3.97v1.41L15.76,17A5.064,5.064,0,0,0,13,21.43,4.947,4.947,0,0,0,11,21a5,5,0,0,0-5,5v3a4.952,4.952,0,0,0,2,3.97v1.41L4.76,36A5.038,5.038,0,0,0,2,40.47V42a1,1,0,0,0,1,1H17.63A15.938,15.938,0,0,0,39.2,50.27L49.68,60.75a5.01,5.01,0,0,0,7.07,0,5.034,5.034,0,0,0,0-7.08L46.27,43.2c.03-.06.06-.13.1-.2H61a1,1,0,0,0,1-1V40.47A5.038,5.038,0,0,0,59.24,36ZM53,23a3.009,3.009,0,0,1,3,3,.99.99,0,0,1-1-1,1,1,0,0,0-2,0,1,1,0,0,1-1,1H50A3.009,3.009,0,0,1,53,23Zm-3,5h2a3.006,3.006,0,0,0,2-.76A2.983,2.983,0,0,0,56,28v1a3,3,0,0,1-6,0Zm5.98,8.61-.41.9-1-.67.63-.62ZM54,33.9v.69l-1,1-1-1V33.9a5.05,5.05,0,0,0,2,0Zm-2.57,2.94-1,.67-.41-.9.78-.39ZM42,4a3.009,3.009,0,0,1,3,3,.99.99,0,0,1-1-1,1,1,0,0,0-2,0,1,1,0,0,1-1,1H39A3.009,3.009,0,0,1,42,4ZM39,9h2a3.006,3.006,0,0,0,2-.76A2.983,2.983,0,0,0,45,9v1a3,3,0,0,1-6,0Zm5.98,8.61-.41.9-1-.67.63-.62ZM43,14.9v.69l-1,1-1-1V14.9a5.05,5.05,0,0,0,2,0Zm-2.57,2.94-1,.67-.41-.9.78-.39Zm-3.77.94.57-.28.86,1.91a.985.985,0,0,0,.63.55A.9.9,0,0,0,39,21a.967.967,0,0,0,.55-.17L42,19.2l2.45,1.63A.967.967,0,0,0,45,21a.9.9,0,0,0,.28-.04.985.985,0,0,0,.63-.55l.86-1.91.57.28A3.044,3.044,0,0,1,49,21.47V22H39.73a15.781,15.781,0,0,0-4.48-1.67A3,3,0,0,1,36.66,18.78ZM22,4a3.009,3.009,0,0,1,3,3,.99.99,0,0,1-1-1,1,1,0,0,0-2,0,1,1,0,0,1-1,1H19A3.009,3.009,0,0,1,22,4ZM19,9h2a3.006,3.006,0,0,0,2-.76A2.983,2.983,0,0,0,25,9v1a3,3,0,0,1-6,0Zm5.98,8.61-.41.9-1-.67.63-.62ZM23,14.9v.69l-1,1-1-1V14.9a5.05,5.05,0,0,0,2,0Zm-2.57,2.94-1,.67-.41-.9.78-.39ZM15,21.47a3.044,3.044,0,0,1,1.66-2.69l.57-.28.86,1.91a.985.985,0,0,0,.63.55A.9.9,0,0,0,19,21a.967.967,0,0,0,.55-.17L22,19.2l2.45,1.63A.967.967,0,0,0,25,21a.9.9,0,0,0,.28-.04.985.985,0,0,0,.63-.55l.86-1.91.57.28a3,3,0,0,1,1.41,1.55A15.781,15.781,0,0,0,24.27,22H15ZM11,23a3.009,3.009,0,0,1,3,3,.99.99,0,0,1-1-1,1,1,0,0,0-2,0,1,1,0,0,1-1,1H8A3.009,3.009,0,0,1,11,23ZM8,28h2a3.006,3.006,0,0,0,2-.76A2.983,2.983,0,0,0,14,28v1a3,3,0,0,1-6,0Zm5.98,8.61-.41.9-1-.67.63-.62ZM12,33.9v.69l-1,1-1-1V33.9a5.05,5.05,0,0,0,2,0ZM9.43,36.84l-1,.67-.41-.9.78-.39ZM4,41v-.53a3.044,3.044,0,0,1,1.66-2.69l.57-.28.86,1.91a.985.985,0,0,0,.63.55A.9.9,0,0,0,8,40a.967.967,0,0,0,.55-.17L11,38.2l2.45,1.63A.967.967,0,0,0,14,40a.9.9,0,0,0,.28-.04.985.985,0,0,0,.63-.55l.86-1.91.32.16A16.145,16.145,0,0,0,16.81,41Zm12.03-5.61L14,34.38V32.97A4.952,4.952,0,0,0,16,29V26a4.941,4.941,0,0,0-.42-2h5.87A15.948,15.948,0,0,0,16.03,35.39ZM32,50A14,14,0,1,1,46,36,14.015,14.015,0,0,1,32,50Zm23.33,5.08a3,3,0,1,1-4.24,4.25l-4.24-4.24,4.24-4.24Zm-5.65-5.64-4.24,4.24-1.42-1.42,4.24-4.24Zm-2.83-2.83-4.24,4.24-1.62-1.62a16.435,16.435,0,0,0,4.24-4.24ZM42.55,24h5.87A4.941,4.941,0,0,0,48,26v3a4.952,4.952,0,0,0,2,3.97v1.41l-2.03,1.01A15.948,15.948,0,0,0,42.55,24ZM60,41H47.19a16.145,16.145,0,0,0,.72-3.34l.32-.16.86,1.91a.985.985,0,0,0,.63.55A.9.9,0,0,0,50,40a.967.967,0,0,0,.55-.17L53,38.2l2.45,1.63A.967.967,0,0,0,56,40a.9.9,0,0,0,.28-.04.985.985,0,0,0,.63-.55l.86-1.91.57.28A3.044,3.044,0,0,1,60,40.47Z"/><path d="M38.24,39,35,37.38V35.97A4.952,4.952,0,0,0,37,32V29a5,5,0,0,0-10,0v3a4.952,4.952,0,0,0,2,3.97v1.41L25.76,39A4.979,4.979,0,0,0,23,43.47V45a1,1,0,0,0,1,1H40a1,1,0,0,0,1-1V43.47A4.979,4.979,0,0,0,38.24,39ZM32,26a3.009,3.009,0,0,1,3,3,.99.99,0,0,1-1-1,1,1,0,0,0-2,0,1,1,0,0,1-1,1H29A3.009,3.009,0,0,1,32,26Zm-3,5h2a3.006,3.006,0,0,0,2-.76A2.983,2.983,0,0,0,35,31v1a3,3,0,0,1-6,0Zm5.98,8.61-.41.9-1-.67.63-.62ZM33,36.9v.69l-1,1-1-1V36.9a5.05,5.05,0,0,0,2,0Zm-2.57,2.94-1,.67-.41-.9.78-.39ZM39,44H25v-.53a2.988,2.988,0,0,1,1.66-2.68l.57-.29.86,1.91a.985.985,0,0,0,.63.55A.9.9,0,0,0,29,43a.967.967,0,0,0,.55-.17L32,41.2l2.45,1.63A.967.967,0,0,0,35,43a.9.9,0,0,0,.28-.04.985.985,0,0,0,.63-.55l.86-1.91.57.29A2.988,2.988,0,0,1,39,43.47Z"/></g></svg>
